<svg version="1.2" xmlns="http://www.w3.org/2000/svg" viewBox="0 0 1344 1558" width="1344" height="1558">
	<title>dom-dark-logo-svg</title>
	<style>
		.s0 { fill: #0071ce } 
	</style>
	<g id="Layer">
		<path id="Layer" class="s0" d="m0.7 447.6v-274.1l476.1-143.7c49.4-15 100.3-24.2 151.7-27.6 51.5-3.4 103.1-0.9 154 7.4 50.9 8.3 100.6 22.4 148.3 42.1 47.7 19.6 92.9 44.6 134.9 74.5zm0.1 370v-274.1l1148.6-346.7c16.3 16.2 31.7 33.3 46.2 51.1 14.5 17.8 28.1 36.4 40.7 55.6 12.6 19.2 24.1 39.1 34.6 59.6 10.5 20.4 19.9 41.4 28.2 62.8 0 0-1298.3 391.7-1298.3 391.7zm-0.1 370.2v-274.1l1325.6-400.2c21.6 91.9 22.5 184.5 5.6 272.5 0 0-1331.2 401.8-1331.2 401.8zm0 370v-274.1l1301.9-392.9c-69.9 187.7-225 342.1-433.6 405z"/>
	</g>
</svg>