<svg xmlns="http://www.w3.org/2000/svg" width="68" height="28" viewBox="0 0 68 28">
  <rect x="0" y="0" width="68" height="28" fill="#0CAB46" />
  <path fill-rule="evenodd" clip-rule="evenodd"
    d="M64.04 15.643h2.096V4H64.04v11.643zm-7.784 4.304v.603c0 1.033 1.561 2.11 3.978 2.11 2.416 0 3.977-1.077 3.977-2.11v-.603c0-1.033-1.56-2.109-3.977-2.109s-3.978 1.076-3.978 2.11zm-2.032-7.339h3.144V6.862h-3.144v5.746zm-.042 8.093v-.883c0-2.066 2.288-3.723 6.052-3.723s6.052 1.679 6.052 3.723v.883c0 2.001-2.267 3.701-6.052 3.701-3.764 0-6.052-1.678-6.052-3.701zm-3.786-6.35v-1.743h1.818V6.862h-1.69V5.12h10.672v1.743h-1.818v5.682c.92-.065 1.732-.13 2.588-.258l.171 1.743c-1.54.258-3.785.323-6.395.323h-5.346zm-9.349-3.507c-.214.495-1.091 1.248-2.524 2.174a79.717 79.717 0 01-4.384 2.625l-1.048-1.678c1.711-.947 3.059-1.722 4.491-2.69 1.947-1.335 2.395-2.26 2.395-4.369V5.227h2.14v1.68c0 2.108.32 2.99 2.63 4.518 1.347.883 2.587 1.593 4.277 2.518L47.997 15.6c-1.582-.903-3.143-1.807-4.427-2.625-1.39-.883-2.267-1.636-2.502-2.13h-.021zm9.047 8.544v1.808H32v-1.808h5.133v-3.917h2.096v3.917h3.635v-3.917h2.096v3.917h5.133zM27 1H1v26h26V1zM11.303 7l5.19 7.493V7H21v14h-4.303l-5.19-7.493V21H7V7h4.303z"
    fill="#fff"></path>
</svg>