<svg version="1.2" baseProfile="tiny-ps" xmlns="http://www.w3.org/2000/svg" viewBox="0 0 1588 1272" width="1588" height="1272">
	<title>Abbott_Laboratories_logo-svg</title>
	<style>
		tspan { white-space:pre }
		.shp0 { fill: #159bd7 } 
	</style>
	<g id="layer1">
		<g id="g6645">
			<path id="path6497" class="shp0" d="M1375 2.78L2.77 2.78L2.77 213.76L1306.49 213.76L1306.49 213.95C1344.23 213.95 1374.37 244.23 1374.37 281.82L1374.37 990.29L1374.19 990.89C1373.96 1028.31 1343.53 1058.39 1306.19 1058.39L281.64 1058.39C244.13 1058.39 213.44 1028.07 213.44 990.28L213.44 704.07C213.44 666.48 244.13 635.96 281.64 635.96L1163.1 635.96L1163.1 425.27L213.03 425.27C96.91 425.27 2.77 519.28 2.77 635.38L2.77 1058.98C2.77 1175.16 96.91 1269.31 213.03 1269.31L1374.99 1269.31C1491.22 1269.31 1585.22 1175.16 1585.22 1058.98L1585.22 213.18C1585.22 97.01 1491.22 2.79 1374.99 2.79" />
		</g>
	</g>
</svg>