<svg version="1.2" baseProfile="tiny-ps" xmlns="http://www.w3.org/2000/svg" viewBox="0 0 1675 911" width="1675" height="911">
	<title>Verizon_2015_logo_-vector-svg-svg</title>
	<style>
		tspan { white-space:pre }
		.shp0 { fill: #d52b1e } 
		.shp1 { fill: #000000 } 
	</style>
	<g id="Layer">
		<path id="Layer" class="shp0" d="M1584.38 0L1360.12 480.52L1275.78 298.45L1184.58 298.45L1323.25 596.27L1396.97 596.27L1674.98 0L1584.38 0Z" />
		<path id="Layer" fill-rule="evenodd" class="shp1" d="M990.19 716.39L1163.86 716.39C1153.86 768.32 1116.37 820.89 1064.53 856.54C1015.79 889.7 957.08 909.73 882.74 909.73C686.58 909.73 568.51 773.33 568.51 594.38C568.51 416.7 692.21 280.92 870.88 280.92C954.58 280.92 1020.16 306.59 1070.14 352.88C1140.74 416.7 1174.46 518.67 1173.22 646.31L745.93 646.31C755.29 726.42 804.02 778.35 883.98 778.35C937.08 778.35 973.31 755.19 990.19 716.39ZM747.17 527.44L989.57 527.44C982.07 457.98 938.35 410.45 874.62 410.45C799.66 410.45 761.54 457.36 747.17 527.44ZM1.29 298.45L188.07 298.45L303.63 680.1L306.14 680.1L421.7 298.45L603.5 298.45L397.33 892.21L207.43 892.21L1.29 298.45Z" />
	</g>
</svg>