<svg version="1.2" xmlns="http://www.w3.org/2000/svg" viewBox="0 0 1510 1298" width="1510" height="1298">
	<title>juniper_black-rgb-header-svg</title>
	<style>
		.s0 { fill: #000000 } 
	</style>
	<g id="Layer">
		<g id="Layer">
			<g id="Layer">
				<g id="Layer">
					<g id="Layer">
						<g id="Layer">
							<path id="Layer" class="s0" d="m636.9 649.5v-649h99.8v651.3c0 187.2-1.5 345 341.3 345 341.3 0 333.6-157.8 333.6-355v-641.3h97.5v641.3c0 261.4-17.8 446.3-431.1 446.3-415.6 0-441.1-184.9-441.1-438.6zm-636.2 648.2v-92.1c11.6 0.8 24 0.8 37.1 0.8 341.3 0 333.6-157.8 333.6-355v-850.9h97.5v850.9c0 261.4-17.8 446.3-431.1 446.3-13.1 0-24.8 0-37.1 0z"/>
						</g>
					</g>
				</g>
			</g>
		</g>
	</g>
</svg>