<svg version="1.2" xmlns="http://www.w3.org/2000/svg" viewBox="0 0 1550 1199" width="1550" height="1199">
	<title>Logo_Air_Products-svg (1)-svg</title>
	<style>
		.s0 { fill: #2b9969 } 
	</style>
	<g id="#2b9969ff">
		<path id="Layer" class="s0" d="m762.3 1.3c49.4-0.3 98.8-1.6 148.2-1.1 9.1 0.5 18.2-0.2 27.3 0.9-21.1 38-43 75.5-64.7 113.2-74.1 128.9-148.4 257.8-223.8 385.9-9.5 3.2-19.5 2.6-29.3 3.6-64.9 1.6-129.7 0.9-194.6 1-26.3 44.8-51.8 90.1-78.1 135 73.8 1.4 147.6 2.7 221.4 4-36.9 64.1-74.1 127.9-110.7 192.1-28.1 48.8-56.4 97.5-84.5 146.3 28.2 0.2 56.4-0.3 84.6 0.4 95.7-0.3 191.4 0.4 287.1 0.2 58.5 0.8 117.1-0.1 175.6 0.6 31.8 0 63.6-0.1 95.3 0 36.4 0.6 72.7 0 109.1 0.5 119.8 0.5 239.6 0.8 359.4 2.9 11.4 0.3 22.8 0.6 34.2 1.5-19.9 37.3-41.1 74-61.4 111.1q-27.9 49.5-55.7 99c-461.7 0-923.3 0.1-1385 0 4.6-6 7.4-13 11.5-19.3 48.3-82.9 96-166.1 143.6-249.3 15.3-27.1 31-54 46-81.3-1.9-3.1-5.8-3.1-8.9-3.6-17.2-1.7-34.5-1.9-51.7-1.8-24.5-0.1-48.9-0.1-73.4-0.1-17.5 0.2-35.1-0.8-52.6-0.6-10.3-0.4-20.7-0.3-31-1.1 21.8-39.1 44.4-77.7 66.5-116.5 21.9-37.8 43.5-75.8 65.5-113.6 21.8-37.6 43.2-75.4 65.4-112.8 74.5-1.6 149.1-2.7 223.7-4.2 44.7-77.2 89.2-154.5 133.8-231.7 5.6-8.8 9.9-18.3 15.3-27.2 45.1-77.7 89.8-155.6 134.8-233.4 10.7 0.1 21.3-0.7 31.9-0.3 8.4 0.3 16.8-0.7 25.2-0.3z"/>
		<path id="Layer" class="s0" d="m927.8 309.1c4.8-7.7 9.1-15.7 14.5-22.9 15.8 23.6 29.9 48.4 44.7 72.7 27.1 45.4 54 91 79.9 137.1 1.3 2.4 2.4 4.8 3.5 7.3-16.2 1.1-32.4 0.8-48.6 1.3-41.7 0.5-83.4 0.1-125.1 0.2-20.3-0.5-40.5-0.2-60.8-1.3-6.1-0.1-12.2 0-18.2-1.1 7.8-17.3 18-33.4 27-50.1 27.2-48 54.7-95.9 83.1-143.2z"/>
		<path id="Layer" class="s0" d="m737.3 641.8c137.3 0 274.7 0 412 0 35.2 60.1 71.1 119.8 106 180.2 4 7 8.3 13.8 12 21-145.3 0-290.7 0.1-436 0-28.7-0.9-57.4-0.3-86.1-0.8-36.4-0.2-72.8-0.6-109.2-1.6-4.5-0.2-9.1-0.2-13.7-0.8 14.8-25.8 30-51.3 44.8-77.2 5-8.7 10.5-17.3 15-26.3 18.5-31.5 36.6-63.1 55.2-94.5z"/>
		<path id="Layer" class="s0" d="m1314 643.3c28.5-1.4 57.1-1.2 85.6-1.5 37.1 0 74.3-0.2 111.4 0.4 12.8 0.4 25.7 0 38.5 1.3-11.1 21.2-23.2 41.9-35.3 62.6-21.6 37.6-43.6 74.9-65.9 112.1-4.2 6.6-8 13.3-12.3 19.8-1.5 2.3-4.9 2.4-6.6 0.3-7.1-7.4-11.6-16.8-17-25.4-22.5-38.3-44.9-76.7-67.4-115-10.3-18.2-21.4-36-31-54.6z"/>
	</g>
</svg>