<svg version="1.2" baseProfile="tiny-ps" xmlns="http://www.w3.org/2000/svg" viewBox="0 0 1696 1709" width="1696" height="1709">
	<title>rtx_logo-svg copy-svg</title>
	<style>
		tspan { white-space:pre }
		.shp0 { fill: #ce1126 } 
	</style>
	<g id="rtx_logo">
		<path id="Fill-1" fill-rule="evenodd" class="shp0" d="M971 3.34C988.09 5.83 1005.05 8.82 1021.75 12.34L933.27 520.54C916.83 516.3 899.82 513.26 882.48 511.54L971 3.34ZM615.14 601.58C595.36 619.91 577.84 640.47 562.85 662.95L174.18 332.38C190.37 310.92 207.5 290.23 225.58 270.4L615.14 601.58ZM1040.21 568.85C1026.85 559.77 1012.85 551.68 998.28 544.52L1252.86 98.3C1266.99 106.1 1280.82 114.4 1294.44 122.97L1040.21 568.85ZM1486.83 288.77C1495.95 299.35 1504.81 310.23 1513.42 321.24L1125.18 651.13C1116.92 639.83 1107.97 629.03 1098.42 618.84L1486.83 288.77ZM37.3 602.18C46.3 572.41 56.79 543.32 68.74 515.1L545.85 691.14C531.41 718.04 520.45 747.12 513.43 777.7L37.3 602.18ZM1191.7 855.49C1191.7 815.18 1184.76 776.5 1172.17 740.52L1688.25 740.52C1693 777.36 1695.74 814.88 1695.74 853.04C1695.74 885.98 1693.73 918.49 1690.13 950.49L1413.46 950.53L1673.86 1046.47C1659.42 1109.99 1638.22 1170.9 1610.73 1228.17L1314.1 1118.77L1556.42 1324.54C1523.02 1375.98 1484.3 1423.52 1441.09 1466.44L1169.94 1236.05L1347.25 1546.97C1300.82 1581.27 1250.84 1610.87 1197.95 1635.2L1004.75 1296.06L1071.82 1681.33C1022.48 1694.99 971.3 1704.2 918.75 1708.61L846.42 1293.36L774.34 1708.36C724.14 1703.95 675.19 1695.21 627.91 1682.36L705.21 1238.28L483.7 1628.52C442.2 1608.47 402.63 1585 365.2 1558.66L600.88 1143.27L239.58 1450.55C210.46 1420.1 183.6 1387.5 159.11 1352.94L545.5 1023.99L72.17 1198.66C56.92 1163.49 43.94 1127.13 33.36 1089.69L509.61 913.91C537.24 1076.97 678.23 1201.14 848.17 1201.14C1037.9 1201.14 1191.7 1046.39 1191.7 855.49ZM504.6 855.49C504.6 871.76 505.84 887.69 507.99 903.37L2.1 903.37C1.11 886.71 0.51 869.92 0.51 853.04C0.51 834.88 1.2 816.98 2.36 799.16L509.27 799.16C506.27 817.49 504.6 836.3 504.6 855.49ZM394.75 127.55C414.02 115.18 433.72 103.57 453.98 92.73L708.59 539.64C687.52 549.06 667.61 560.59 649.06 573.91L394.75 127.55ZM671.8 12.98C690.31 8.99 709.07 5.7 727.95 3L816.52 511.33C797.25 513.09 778.45 516.43 760.2 521.31L671.8 12.98Z" />
	</g>
</svg>