<svg version="1.2" xmlns="http://www.w3.org/2000/svg" viewBox="0 0 1504 1500" width="1504" height="1500">
	<title>XcelEnergy-svg</title>
	<style>
		.s0 { fill: #da1020 } 
	</style>
	<g id="logo">
		<g id="Layer">
			<g id="Layer">
				<path id="Layer" fill-rule="evenodd" class="s0" d="m1500.3 1085c-58.4 70.9-142.6 143.3-257.2 221.4-378.9 258-868.2 257.3-1068.4-1.6-81.3-105-112.5-233.7-90.1-372.3 35.5-221.4 204.8-443.3 476.4-625 86.8-58 152-57.8 191.3-47.3 50.5 13.5 79.8 48.1 89.1 66.4l0.4 0.9c19.3 37.9 64.3 126.6-110.8 265-347.6 274.7-469.3 521.3-342.7 694.2 132.5 180.9 559.5 171.8 846.2-18.3 89.7-59.4 167.1-110.7 240.3-199.2 8.7-10.7 17.9-9.4 23-5 6 5.1 7.3 15.1 2.5 20.8zm-1497.4-670.6c58.5-70.9 142.6-143.3 257.2-221.3 378.9-258.1 868.3-257.4 1068.5 1.6 81.2 105 112.3 233.7 90.1 372.2-35.6 221.4-204.9 443.4-476.5 625.1-86.8 58-151.9 57.7-191.3 47.3-50.5-13.4-79.8-48.2-89-66.4l-0.5-0.9c-19.3-37.8-64.3-126.6 110.8-265 347.7-274.8 469.4-521.3 342.8-694.2-132.5-180.9-559.6-171.8-846.2 18.2-89.7 59.4-167.2 110.7-240.4 199.3-8.7 10.7-17.9 9.3-23 5-6-5.1-7.2-15.1-2.5-20.9z"/>
			</g>
		</g>
	</g>
</svg>