<svg version="1.2" xmlns="http://www.w3.org/2000/svg" viewBox="0 0 1557 834" width="1557" height="834">
	<title>logo (4)-svg</title>
	<style>
		.s0 { fill: #0070ab } 
		.s1 { fill: #ffcf01 } 
	</style>
	<g id="Layer">
		<g id="Layer">
			<path id="Layer" fill-rule="evenodd" class="s0" d="m230.8 0.6h348.9l81.1 216.4 5.4 2.7 21.7 54.1c73 2.8 91.9 21.7 94.6 35.2 2.7 8.1 2.7 19-5.4 32.5-10.8-10.8-35.1-21.7-81.1-21.7 13.5 40.6 29.7 81.2 29.7 81.2-35.1 37.9-81.1 92-59.5 138 16.3 32.5 62.2 48.7 135.3 48.7 235.2 0 662.5-165 713.9-186.7q16.2-8.1 16.2-24.3c16.3 2.7 27.1 16.2 24.4 35.1 0 13.6-8.1 24.4-18.9 29.8-46 18.9-308.3 119-524.7 165l-91.9 227.3c0 0-235.3 0-267.8 0-54.1 0-81.1-2.7-119-86.6-18.9-43.3-83.8-211-151.4-376-102.8 32.4-235.3 78.4-313.7 119-5.4 2.7-10.9 5.4-16.3 5.4-18.9 0-32.4-13.5-32.4-32.5 0-2.7 0-5.4 2.7-10.8 5.4 2.7 8.1 5.4 16.2 5.4 5.4 0 8.1 0 13.5-2.7 92-48.7 251.5-100.1 313.7-119l-18.9-48.7 2.7-2.7zm581.5 257l94.6-257h348.9l-197.4 492.4c-113.6 27.1-211 43.3-270.5 43.3-37.8 0-59.5-8.1-64.9-21.7-10.8-29.7 64.9-100.1 73-108.2 40.6-40.6 54.1-78.4 40.6-116.3-5.4-13.6-13.5-21.7-24.3-32.5zm-581.5-257l113.6 281.4"/>
			<path id="Layer" fill-rule="evenodd" class="s1" d="m366 338.8c-102.7 32.5-235.2 78.4-316.4 121.7-5.4 2.7-10.8 5.4-16.2 5.4-18.9 0-32.5-13.5-32.5-32.4 0-13.5 8.2-24.4 19-27.1 91.9-43.3 221.7-89.3 321.8-119 10.8 13.5 18.9 32.4 24.3 51.4zm1144 2.7c-5.4 0-10.8 0-16.2 2.7-308.3 132.6-746.4 227.3-768.1 167.7-10.8-27 73.1-102.8 73.1-102.8 37.8-37.8 59.4-78.4 43.2-121.7-18.9-48.7-105.4-70.4-181.2-70.4 5.4 10.9 13.5 32.5 21.7 62.3 2.7 0 2.7 0 2.7 0 62.2 2.7 86.5 16.2 91.9 32.4 8.1 16.3-10.8 37.9-18.9 46-5.4 5.4-35.2 40.6-35.2 40.6-29.7 32.5-83.8 92-56.8 143.4 81.2 156.9 765.4-94.7 857.3-135.3 10.9-5.4 19-16.2 19-29.7 0-19-13.6-35.2-32.5-35.2z"/>
		</g>
	</g>
</svg>