<svg version="1.2" xmlns="http://www.w3.org/2000/svg" viewBox="0 0 1530 1382" width="1530" height="1382">
	<title>John_Deere_logo-svg</title>
	<defs>
		<radialGradient id="g1" cx="795.8" cy="590.2" r="701.8" gradientUnits="userSpaceOnUse">
			<stop offset="0" stop-color="#5aad35"/>
			<stop offset=".7" stop-color="#438e2f"/>
			<stop offset="1" stop-color="#2c702a"/>
		</radialGradient>
	</defs>
	<style>
		.s0 { fill: #247218 } 
		.s1 { fill: #fcdf17 } 
		.s2 { fill: url(#g1) } 
	</style>
	<path id="Layer" class="s0" d="m764.8 0c220.6 0 445.3 47.5 656.4 149.6 74.5 178.5 108.6 362.3 108.6 541.7 0 178.8-33.6 360.5-108.2 540.7-212 102.6-435.9 149.7-656.7 149.7-220.7 0-444.5-47.1-656.7-149.7-74.6-180.1-108.1-361.9-108.1-540.7 0-179.4 33.9-363.2 108.5-541.7 211.2-102.1 435.9-149.6 656.2-149.6z"/>
	<path id="Layer" class="s1" d="m154.4 1189c-61.7-154.5-95.4-322.4-95.4-497.7 0-175.8 33.8-343.9 95.7-498.7 183.5-86 392.3-134.2 610.1-134.2 217.9 0 426.9 48.2 610.2 134.2 61.9 154.8 95.8 322.9 95.8 498.7 0 175.3-33.7 343.2-95.4 497.7-183.4 86.1-392.5 134.4-610.6 134.4-217.9 0-427-48.3-610.4-134.4z"/>
	<path id="Layer" class="s2" d="m1340.2 1157c-177.3 80.2-375.8 122.5-575.4 122.5-199.5 0-398-42.3-575.4-122.5-57-149.1-86.3-305.5-86.3-465.7 0-160.6 29.3-317.4 86.7-466.5 177.3-80.1 375.6-122.6 575-122.6 199.3 0 397.8 42.5 575.2 122.6 57.2 149.1 86.5 305.9 86.5 466.5 0 142.1-23 281.2-68 414.8-20.7-34.2-49.3-78.5-65.9-102.1-20-9.4-86.5-41.1-104.1-56.3-15.2-13.1-26.6-35.4-36.2-70.3-12-44-27-99-70.5-144.6l-1.5-1.5c0 0 46.9-19.1 49.3-20.1-13.8-88.2-116.7-146.6-123-150.1-0.5 0.4-0.5 0.6-0.9 0.9 38.1 47.8 49.5 90 49.5 118.3 0 14.9-3.1 26.2-7.1 32.3l-0.6 0.8-3.7-1c-63.5-18.8-155.1-26-272.4-21.7-27.6 1.1-67.1-0.2-90.9-23.1-13.4-12.8-20.2-31.4-20.2-55.4 0.2-64.6 28-152.6 31.2-162.4l0.4-1.2 1.3 0.2c0 0 47.5 5.8 47.5 6.1 46.2-25.5 69.3-49.7 80-63.3-7.1 0.9-112.5 13.6-112.5 13.6l2.4-8.4c5.8-20.4 14.7-52.4 14.7-86.1 0-48-18.2-99.5-89.8-126.7-0.6 0.6-0.8 1.2-1.3 1.9 24.8 24.2 45 62.5 45 98.2 0 11.4-2.2 22.5-6.6 33l-0.5 1-1.2-0.2c-11.9-2-29.6-3.6-44.2-4.2l-1.2-0.1-0.3-1c-11.3-39.7-61.6-86.6-116.1-90.8-0.5 0.5-0.6 0.8-1 1.6 15.7 9.7 61.8 42 70.9 90.3l0.4 1.7-1.6 0.1c-27.6 3.3-53.1 11.4-60.3 13.7l-1.1 0.4-0.6-1c-11.4-18.8-48.9-45.2-105.3-41.3-0.1 0.7-0.2 1.4-0.3 2.4 6.2 2.2 61.7 24.2 70.2 52.9l0.4 1.2-1.3 0.7c-31.2 14.5-73.4 40.7-97 58.4 0.4 0.5 0.4 0.6 0.6 1 113.6-43.6 225.9-58.1 261.6-33.9 7.3 4.9 10.9 11.3 10.9 18.8 0 8.9-2.4 16.3-10.9 29.9-50.3 10.9-138.2 35.7-209.5 62.2 0.8 2.4 10.1 31 10.7 32.7 5 0.9 98.9 17.2 98.9 17.2 0.2 0 4.8 0.8 6.7 4.4 0.5 0.9 0.9 2.1 0.9 3.3 0 1.6-0.6 3.4-1.6 5.5-33.9 67-52 128.1-60.7 204.6l-0.5 1.3-1.2 0.1c-16.4 1.6-161.7 15.5-226.3 39.6 0.6 5.6 3.4 31.3 3.4 33v0.2c108.4 131.9 242.7 200.2 286.2 219.9-7.3-14.7-34-69-34-69.2-4.9-3.8-16-7.9-31.4-11.6-69.8-22.8-125.5-106.1-139.7-133.6l-1-2.2h2.5c62.1-0.1 116.4 17.8 169.5 35.2 34.4 11.2 66.9 21.8 100.4 27.3 50.2 8.1 101.5 1.3 151.2-5.1l26-3.4c40.9-4.9 83.4-5.8 134.8-1.9 5.1 6.2 51.1 61.5 94.9 84.2 31.9 16.5 103.9 41.9 213.9 75.7 0 0 10.1 3.1 10.7 3.5 0.6 0.5 52.4 51.7 90.9 115.2 0.1 0-0.2 0.2-0.2 0.2z"/>
</svg>