<svg version="1.2" baseProfile="tiny-ps" xmlns="http://www.w3.org/2000/svg" viewBox="0 0 1594 1084" width="1594" height="1084">
	<title>ABBV_BIG copy-svg</title>
	<style>
		tspan { white-space:pre }
		.shp0 { fill: #071d49 } 
	</style>
	<g id="Layer">
		<path id="Layer" fill-rule="evenodd" class="shp0" d="M1539.09 1083.8C1437.41 1083.8 1396.7 1043.19 1383.15 961.91L1356.05 846.74C1328.9 894.18 1193.29 1083.8 894.97 1083.8C894.97 1083.8 745.8 1083.8 589.87 1083.8C128.84 1083.8 0 772.23 0 542C0 284.6 155.94 0.14 589.87 0.14C678 0.14 772.96 0.14 915.34 0.14C1247.54 0.14 1430.63 189.76 1471.28 426.83C1505.21 623.23 1593.34 1083.8 1593.34 1083.8C1593.34 1083.8 1573.02 1083.8 1539.09 1083.8ZM867.86 169.48C759.35 169.48 732.25 169.48 610.19 169.48C298.32 169.48 196.64 365.88 196.64 542C196.64 718.06 298.32 914.52 610.19 914.52C739.03 914.52 779.73 914.52 867.86 914.52C1193.29 914.52 1281.47 711.29 1281.47 542C1281.47 392.99 1200.12 169.48 867.86 169.48Z" />
	</g>
</svg>