<svg version="1.2" xmlns="http://www.w3.org/2000/svg" viewBox="0 0 1609 1045" width="1609" height="1045">
	<title>Bat_logo20-svg</title>
	<style>
		.s0 { fill: #24336b } 
	</style>
	<g id="g79">
		<g id="g3706">
			<path id="path3704" class="s0" d="m2.3 223.8c-2 0.2-2.6-2.8-0.6-3.4q10.1-2.5 20.1-4.9c61.8-15 124.1-27.1 186.7-38.1 63-11 126.8-19 190.5-25 66.1-6.3 132.4-9.9 198.7-10.8 130.5-1.7 261.7 7.5 389.2 36.6 73.2 16.6 145.4 39.7 211 76.6 98.7 55.4 177.3 157.4 167.1 275.3-5.5 63.2-36.7 123.5-73.7 173.7-103.4 140.3-256 246-400.1 340.3-1.8 1.2-3.7-1.4-1.9-2.7 180.7-137.7 277.5-293.2 251-439.7-50.8-281.3-539.3-434.6-1138-377.9zm602.5-153.6c-2.1 0.1-2.5-2.9-0.5-3.3 46.1-9.3 92.5-17.6 138.9-25 73.8-12 148.1-21.9 222.6-29 128.1-12.4 261.5-19.8 389.9-1.5 28.9 4.1 57.5 9.9 85.6 17.8 70 19.8 141.7 57.5 161 132.8 12.7 49.2 5 101.6-10.3 149.3-29.7 92.6-87.7 175.3-149.1 249.5q-5.7 7-11.5 13.8c-1.3 1.4-3.6 0.1-2.9-1.7 25.5-67.1 36.6-143.3 23.5-214.3-19.3-104.8-102.8-181.6-196.6-223.1-113.8-50.2-239.1-62.5-362.2-67.5-96.1-4-192.4-2.1-288.4 2.2z"/>
		</g>
	</g>
</svg>