<svg version="1.2" xmlns="http://www.w3.org/2000/svg" viewBox="0 0 1579 1478" width="1579" height="1478">
	<title>brand-sprite (1)-svg</title>
	<style>
		.s0 { fill: #0081c6 } 
		.s1 { fill: #f8971d } 
		.s2 { fill: #54b948 } 
	</style>
	<path id="Layer" class="s0" d="m1109.8 631.8q-1.7 6.2-4.3 12.1-2.6 5.9-6 11.3-3.4 5.5-7.6 10.3-4.3 4.9-9.1 9.1c-54.2 65.5-171.4 182.8-171.4 471.6 0 148.9 24.8 212.1 24.8 282 0 31.6-6.8 49.6-22.6 49.6-38.3 0-101.4-157.9-101.4-347.4 0-397.1 250.3-507.7 288.6-507.7 2.3 0 6.8 2.3 9 9.1zm-631.4-9.1c38.4 0 288.7 110.6 288.7 507.7 0 189.5-63.2 347.4-101.5 347.4-15.8 0-22.6-15.7-22.6-49.6 0-69.9 24.8-133.1 24.8-282 0-288.8-117.2-406.1-171.3-471.6q-4.9-4.2-9.1-9.1-4.2-4.8-7.7-10.3-3.4-5.4-6-11.3-2.6-5.9-4.3-12.1c-2.3-4.6 2.3-9.1 9-9.1z"/>
	<ellipse id="Layer" class="s1" cx="791.9" cy="699.4" rx="90.2" ry="94.8"/>
	<path id="Layer" fill-rule="evenodd" class="s2" d="m1571.8 1292.6q1.1 0.9 2.2 1.8 1.2 0.8 2.4 1.6 1.2 0.7 2.5 1.3 0 0.5-0.1 1-0.2 0.4-0.5 0.7-0.4 0.4-0.8 0.5-0.4 0.2-0.9 0.1c-2.3 0-4.5-2.3-6.8-2.3-49.1-18-99-34.3-149.3-48.6-50.4-14.4-101.3-26.9-152.6-37.4-51.3-10.6-103-19.3-155-26-51.9-6.7-104.1-11.5-156.4-14.3q-0.7-3-1.2-6.1-0.5-3.1-0.8-6.2-0.3-3.1-0.3-6.3-0.1-3.1 0-6.2-0.1-5.7 0-11.3 0-5.7 0.3-11.3 0.3-5.7 0.8-11.3 0.5-5.6 1.2-11.2c286.4 27 482.5 110.5 613.3 189.5q1 1 2 2zm-635.6-1069.2c-6.9-5.5-12.9-12-17.8-19.3-4.8-7.3-8.5-15.3-11-23.8-2.4-8.4-3.5-17.2-3.2-26 0.3-8.7 2-17.4 4.9-25.7 2.9-10.1 7-19.9 12.2-29 5.2-9.2 11.5-17.7 18.7-25.3 7.2-7.6 15.4-14.4 24.2-20 8.9-5.7 18.4-10.3 28.4-13.7 6.1 8.7 11.3 18.1 15.3 28 4 9.9 6.8 20.2 8.3 30.8 1.6 10.5 1.9 21.2 1 31.8-1 10.7-3.2 21.1-6.6 31.3-2.6 8-6.3 15.7-11.1 22.7-4.7 7.1-10.5 13.4-17.1 18.8-6.5 5.3-13.9 9.7-21.7 13-7.8 3.3-16.1 5.4-24.5 6.4zm212 176c-2.9-8.1-4.4-16.5-4.5-25-0.1-8.6 1.2-17 3.8-25.1 2.7-8.1 6.6-15.8 11.7-22.6 5.1-6.8 11.3-12.8 18.3-17.6 7.5-6.7 15.8-12.5 24.7-17.2 8.9-4.8 18.4-8.5 28.1-11 9.8-2.5 19.8-3.9 29.9-4.1 10.1-0.2 20.2 0.8 30 3 0.4 10.2-0.3 20.4-2.2 30.4-1.9 10-4.9 19.8-9 29.2-4.1 9.3-9.2 18.2-15.3 26.4-6.1 8.2-13.1 15.7-20.8 22.3-6.4 5.5-13.6 10.1-21.3 13.5-7.8 3.4-16 5.7-24.4 6.7-8.4 1-16.9 0.7-25.2-0.8-8.3-1.5-16.3-4.3-23.8-8.1zm6.7 266.2c2.2-8 5.5-15.7 10.1-22.6 4.5-7 10-13.2 16.5-18.5 6.4-5.2 13.6-9.4 21.4-12.4 7.7-3 15.9-4.7 24.2-5.2 9.8-1.2 19.8-1.4 29.7-0.3 9.9 1 19.6 3.2 29 6.6 9.4 3.3 18.3 7.7 26.6 13.1 8.4 5.4 16.1 11.8 22.9 19-5.2 8.6-11.5 16.6-18.6 23.7-7.1 7.2-15 13.5-23.6 18.7-8.6 5.3-17.8 9.6-27.4 12.7-9.6 3.1-19.5 5-29.6 5.8-7.9 0.7-15.9 0.3-23.8-1.2-7.8-1.5-15.4-4-22.5-7.6-7.2-3.6-13.8-8.1-19.7-13.5-5.9-5.4-11-11.5-15.2-18.3zm-76.7 94.8c4.2-6 9.3-11.3 15-15.8 5.7-4.5 12.1-8.1 18.9-10.7 6.8-2.6 13.9-4.1 21.2-4.6 7.2-0.5 14.5 0.1 21.6 1.7 8.6 1.3 17 3.6 25 6.9 8.1 3.3 15.7 7.5 22.7 12.6 7.1 5.1 13.5 11 19.1 17.6 5.7 6.6 10.5 13.8 14.4 21.6-6.6 6-13.9 11.2-21.7 15.5-7.8 4.3-16.1 7.7-24.6 10-8.6 2.4-17.5 3.7-26.4 3.9-8.9 0.3-17.8-0.5-26.5-2.3-7.2-1.1-14.2-3.2-20.7-6.4-6.5-3.1-12.5-7.3-17.8-12.4-5.2-5-9.6-10.8-13-17.2-3.4-6.4-5.9-13.3-7.2-20.4zm-230-250.5c-8.2-6.7-15.4-14.6-21.3-23.5-5.8-8.9-10.2-18.7-13-28.9-2.8-10.3-4-20.9-3.6-31.6 0.5-10.6 2.7-21.1 6.4-31.1 3.5-12.2 8.4-23.9 14.6-35 6.2-11.1 13.6-21.4 22.2-30.8 8.6-9.4 18.2-17.7 28.7-24.9 10.5-7.1 21.8-13 33.7-17.6 7.3 10.4 13.3 21.5 18 33.2 4.8 11.7 8.1 23.9 10.1 36.4 1.9 12.5 2.5 25.2 1.5 37.7-0.9 12.6-3.3 25.1-7.1 37.1-2.6 10.4-6.8 20.2-12.4 29.3-5.5 9-12.4 17.2-20.4 24.2-8 7-17 12.8-26.8 17.1-9.7 4.3-20 7.2-30.6 8.4zm99.3 58.7c-3.1-9-4.7-18.4-4.9-27.9-0.1-9.5 1.3-19 4.1-28 2.8-9.1 7.1-17.7 12.6-25.4 5.4-7.8 12.1-14.6 19.7-20.3 8.7-7.6 18.1-14.1 28.3-19.6 10.1-5.4 20.9-9.6 32-12.5 11.1-2.9 22.5-4.6 34-4.8 11.5-0.3 23 0.7 34.3 3.1 0.6 11.4-0.1 22.8-2.1 34-2.1 11.2-5.5 22.1-10.2 32.5-4.7 10.4-10.7 20.1-17.7 29.1-7.1 8.9-15.2 17-24.2 24-6.8 6.6-14.7 12.2-23.2 16.4-8.6 4.3-17.8 7.2-27.2 8.6-9.5 1.4-19.1 1.3-28.5-0.3-9.4-1.5-18.5-4.5-27-8.9zm67.6-214.4c-6-8.9-10.7-18.7-13.8-29-3.2-10.4-4.8-21.1-4.8-31.9 0-10.8 1.6-21.5 4.8-31.8 3.1-10.4 7.8-20.2 13.8-29.1 6.7-11.2 14.7-21.5 23.9-30.7 9.2-9.2 19.5-17.2 30.7-23.9 11.2-6.6 23.1-11.9 35.6-15.6 12.5-3.8 25.3-5.9 38.3-6.5 4.5 12 7.5 24.5 8.9 37.2 1.5 12.7 1.5 25.6-0.1 38.3-1.6 12.7-4.6 25.2-9.2 37.2-4.5 12-10.4 23.4-17.6 33.9-5.6 9.3-12.5 17.7-20.5 24.9-8 7.3-17.1 13.3-26.9 17.9-9.7 4.6-20.1 7.7-30.8 9.3-10.7 1.5-21.6 1.5-32.3-0.2zm135.3 185c-0.4-10 0.7-20 3.3-29.7 2.6-9.7 6.7-18.9 12.1-27.3 5.4-8.4 12.1-16 19.8-22.4 7.8-6.4 16.4-11.6 25.7-15.3 10.9-5.5 22.4-9.6 34.3-12.2 11.8-2.6 24-3.7 36.2-3.3 12.1 0.4 24.2 2.3 35.9 5.6 11.7 3.4 22.9 8.2 33.4 14.4-2.5 11.7-6.5 23-11.7 33.7-5.2 10.8-11.7 20.9-19.3 30.1-7.7 9.1-16.4 17.4-25.9 24.5-9.6 7.1-20 13.1-31 17.7-9 4.9-18.7 8.3-28.7 10.1-10 1.9-20.2 2.1-30.3 0.7-10.1-1.4-19.9-4.5-29-9-9.2-4.5-17.5-10.4-24.8-17.6zm-435.2-385.8c-0.6-14.8 0.6-29.6 3.7-44.1 3-14.5 7.8-28.6 14.3-41.9 6.4-13.4 14.5-25.9 24-37.2 9.5-11.4 20.4-21.5 32.4-30.2 11.7 9 22.3 19.3 31.6 30.7 9.3 11.5 17.3 24 23.7 37.2 6.5 13.3 11.3 27.3 14.5 41.7 3.3 14.4 4.8 29.1 4.6 43.8 0.6 12.2-0.7 24.5-3.9 36.2-3.2 11.8-8.2 23.1-14.8 33.3-6.6 10.3-14.8 19.5-24.3 27.2-9.4 7.7-20 13.9-31.4 18.4-11.5-4.3-22.2-10.4-31.8-18-9.5-7.7-17.8-16.9-24.5-27.2-6.6-10.3-11.6-21.6-14.7-33.5-3.1-11.8-4.2-24.1-3.4-36.4zm-712.8 1141.9q1-0.9 2.1-1.8 1.2-0.8 2.4-1.6 1.2-0.7 2.5-1.3c128.5-81.2 327-162.5 613.3-189.5q0.7 5.6 1.2 11.2 0.5 5.6 0.8 11.3 0.3 5.6 0.4 11.3 0 5.6-0.1 11.3 0.1 3.1 0.1 6.2-0.1 3.2-0.4 6.3-0.3 3.1-0.8 6.2-0.5 3.1-1.2 6.1c-52.2 3.2-104.4 8.2-156.3 15.1-51.9 6.8-103.6 15.6-154.8 26.1-51.3 10.6-102.2 23-152.6 37.2-50.5 14.2-100.3 30.2-149.6 47.9-2.3 0-4.5 2.3-6.8 2.3l-2.2-2.3q0.9-1 2-2zm561.7-1137.4c-3.3-10.1-5.4-20.6-6.3-31.2-0.9-10.6-0.5-21.3 1-31.8 1.6-10.5 4.4-20.9 8.3-30.8 3.9-9.9 9-19.3 15.1-28 9.9 3.4 19.4 8 28.3 13.7 8.8 5.6 17 12.4 24.2 20 7.3 7.6 13.5 16.1 18.7 25.3 5.2 9.1 9.3 18.9 12.2 29 3.1 8.1 5 16.7 5.5 25.5 0.5 8.7-0.4 17.4-2.6 25.9-2.2 8.4-5.7 16.5-10.5 23.9-4.7 7.3-10.5 13.9-17.2 19.5-8.8-0.1-17.6-1.6-25.9-4.6-8.3-2.9-16.1-7.2-23-12.7-6.9-5.5-12.8-12-17.5-19.5-4.8-7.4-8.2-15.6-10.3-24.2zm-230 227.9c-8-6.4-15.1-13.8-21.3-22-6.2-8.1-11.4-17-15.5-26.4-4.2-9.4-7.1-19.2-8.9-29.3-1.8-10.1-2.3-20.4-1.7-30.6 9.9-2.2 20-3.3 30.1-3.1 10.1 0.2 20.1 1.5 29.9 4.1 9.8 2.5 19.2 6.2 28.1 11 8.9 4.8 17.2 10.6 24.7 17.4 7 4.8 13.2 10.7 18.3 17.6 5.1 6.8 9 14.4 11.6 22.5 2.7 8.1 4 16.6 3.8 25.1-0.1 8.5-1.6 17-4.4 25-7.4 4.3-15.4 7.4-23.8 9.1-8.3 1.8-16.9 2.1-25.4 1.1-8.5-1-16.8-3.4-24.5-7-7.7-3.7-14.8-8.6-21-14.5zm4.5 318.2c-9.9-0.8-19.7-2.8-29.1-5.9-9.4-3.1-18.4-7.4-26.9-12.7-8.4-5.3-16.1-11.5-23-18.7-6.9-7.1-13-15.1-18-23.7 6.8-7.4 14.4-13.9 22.7-19.4 8.3-5.6 17.2-10 26.6-13.4 9.5-3.3 19.2-5.5 29.2-6.4 9.9-0.9 19.9-0.6 29.8 0.9 8.3 0.4 16.4 2.2 24.2 5.2 7.7 3 14.9 7.2 21.4 12.4 6.4 5.2 12 11.4 16.5 18.4 4.5 7 7.9 14.6 10 22.6-3.8 7.4-8.8 14-14.8 19.8-6 5.7-12.8 10.5-20.3 14.2-7.4 3.6-15.4 6-23.6 7.1-8.2 1.2-16.5 1-24.7-0.4zm99.2 112.8c-8.7 2-17.6 3-26.5 2.8-9-0.1-17.9-1.4-26.5-3.8-8.6-2.3-16.9-5.7-24.7-10.2-7.8-4.4-15-9.7-21.5-15.9 3.7-8 8.4-15.5 14-22.4 5.5-6.8 11.9-13 19-18.3 7-5.3 14.7-9.7 22.8-13.1 8.2-3.4 16.7-5.8 25.4-7.1 7.1-1.8 14.4-2.4 21.7-2 7.2 0.5 14.4 2 21.2 4.6 6.8 2.6 13.2 6.3 18.9 10.8 5.8 4.5 10.8 9.9 14.9 15.9-1.1 7.3-3.4 14.5-6.7 21.1-3.3 6.6-7.7 12.7-12.9 17.9-5.3 5.3-11.3 9.7-18 13-6.6 3.3-13.7 5.6-21.1 6.7zm200.7-385.9c-4-12-6.6-24.4-7.7-37.1-1.1-12.6-0.7-25.3 1.3-37.8 2-12.5 5.4-24.8 10.3-36.5 4.9-11.7 11.1-22.8 18.7-33 12 4.2 23.5 9.9 34.2 16.9 10.6 7.1 20.4 15.4 29 24.8 8.6 9.4 16.1 19.8 22.1 31.1 6.1 11.2 10.8 23.2 13.9 35.5 3.7 10 5.8 20.5 6.3 31.1 0.5 10.7-0.7 21.3-3.5 31.6-2.8 10.2-7.2 20-13.1 28.9-5.8 8.9-13 16.8-21.3 23.5-10.7-0.9-21.1-3.4-31-7.6-9.9-4.2-19-9.9-27.1-17-8-7.1-14.9-15.4-20.4-24.6-5.4-9.2-9.4-19.3-11.7-29.8zm-117.2 121.9c-8.9-7.2-16.8-15.3-23.7-24.3-7-9-12.9-18.8-17.5-29.1-4.7-10.3-8.2-21.2-10.4-32.3-2.1-11.2-3-22.6-2.6-33.9 11.3-2.6 22.8-3.8 34.3-3.7 11.6 0.2 23 1.8 34.2 4.7 11.2 3 21.9 7.2 32 12.8 10.2 5.5 19.6 12.2 28.1 20 7.6 5.7 14.3 12.5 19.8 20.3 5.4 7.7 9.7 16.3 12.5 25.4 2.8 9 4.2 18.5 4.1 28-0.2 9.5-1.8 18.9-4.8 27.9-8.6 4-17.8 6.8-27.1 8.1-9.4 1.4-18.9 1.4-28.3 0-9.4-1.4-18.5-4.2-27.1-8.2-8.6-4.1-16.5-9.4-23.5-15.7zm-69.9-250.5c-7.2-10.5-13.2-21.9-17.7-33.9-4.5-12-7.6-24.5-9.1-37.2-1.6-12.7-1.6-25.6-0.2-38.3 1.5-12.7 4.5-25.2 8.9-37.2 13 0.8 25.8 3.1 38.2 7 12.3 3.8 24.2 9.1 35.4 15.8 11.1 6.6 21.4 14.6 30.7 23.6 9.2 9.1 17.4 19.3 24.3 30.3 6.5 8.7 11.6 18.5 15 28.8 3.5 10.4 5.3 21.2 5.3 32.1 0 10.9-1.8 21.8-5.3 32.1-3.4 10.4-8.5 20.1-15 28.8-10.7 1.9-21.7 2.1-32.4 0.7-10.8-1.5-21.2-4.6-31.1-9.2-9.8-4.6-18.9-10.7-26.8-18.1-8-7.3-14.8-15.8-20.2-25.3zm-137.6 252.7c-11.1-4.4-21.6-10.3-31.3-17.3-9.7-7.1-18.4-15.3-26.1-24.5-7.6-9.3-14.1-19.4-19.2-30.2-5.2-10.8-9-22.3-11.3-34 10.6-5.9 21.8-10.5 33.5-13.7 11.7-3.3 23.7-5.1 35.8-5.5 12.1-0.4 24.3 0.7 36.1 3.1 11.9 2.5 23.4 6.4 34.4 11.6 9.3 3.7 17.9 8.9 25.6 15.3 7.7 6.4 14.4 14 19.8 22.4 5.5 8.4 9.5 17.6 12.2 27.3 2.6 9.7 3.7 19.7 3.3 29.7-7.4 7-15.9 12.7-25 17-9.1 4.4-18.9 7.3-28.9 8.7-10.1 1.4-20.2 1.3-30.2-0.4-10-1.7-19.7-4.9-28.7-9.5z"/>
</svg>