<svg version="1.2" baseProfile="tiny-ps" xmlns="http://www.w3.org/2000/svg" viewBox="0 0 1163 1158" width="1163" height="1158">
	<title>Tesla_Motors-svg</title>
	<style>
		tspan { white-space:pre }
		.shp0 { fill: #e82127 } 
	</style>
	<g id="TESLA">
		<g id="g22">
		</g>
		<g id="g30">
		</g>
	</g>
	<g id="T">
		<path id="path35" class="shp0" d="M581.81 1157.59L744.44 242.9C899.46 242.9 948.35 259.9 955.41 329.29C955.41 329.29 1059.4 290.51 1111.85 211.76C907.18 116.91 701.54 112.64 701.54 112.64L581.54 258.8L581.81 258.78L461.82 112.61C461.82 112.61 256.17 116.9 51.53 211.74C103.93 290.49 207.96 329.27 207.96 329.27C215.06 259.88 263.9 242.88 417.87 242.77L581.81 1157.59" />
		<path id="path37" class="shp0" d="M581.75 70.42C747.19 69.15 936.56 96.01 1130.42 180.51C1156.33 133.87 1162.99 113.26 1162.99 113.26C951.08 29.41 752.62 0.72 581.73 0C410.84 0.72 212.39 29.42 0.5 113.26C0.5 113.26 9.96 138.65 33.05 180.51C226.87 96.01 416.28 69.15 581.73 70.42L581.75 70.42Z" />
	</g>
</svg>