<svg xmlns="http://www.w3.org/2000/svg" viewBox="0 0 1024 1024"><path fill="#3617cc" d="M0 774V252c.309-1.033.831-2.053.894-3.101.743-12.292 1.152-24.611 2.177-36.879 1.317-15.763 3.797-31.38 8.022-46.651C22.268 124.981 42.551 90.092 73.517 61.53c36.578-33.737 80.102-51.811 129.064-57.406 15.69-1.793 31.541-2.171 47.314-3.247C250.945.805 251.966.302 253 0h520c1.191.315 2.37.839 3.576.914 11.622.719 23.27 1.114 34.871 2.075 31.108 2.577 61.038 9.762 89.06 23.867 17.915 9.018 34.558 19.947 49.308 33.639 13.975 12.973 26.256 27.377 36.568 43.417 13.623 21.191 23.132 44.118 28.629 68.708 4.88 21.828 7.232 43.96 8.096 66.28.04 1.043.584 2.068.893 3.101V789c-.323.859-.859 1.7-.936 2.581-.696 7.963-1.118 15.955-1.984 23.899-3.25 29.826-10.067 58.684-23.694 85.652a218.465 218.465 0 0 1-29.67 44.309c-13.572 15.73-29.166 29.201-46.641 40.49-21.338 13.784-44.419 23.379-69.158 29.035-21.666 4.953-43.664 7.216-65.832 8.123-1.039.042-2.057.597-3.084.912H234c-1.009-.341-2.005-.934-3.029-.986-18.316-.94-36.421-3.391-54.381-7.105-25.022-5.175-48.546-14.247-70.112-27.866-27.509-17.372-50.535-39.442-68.079-67.085-19.358-30.5-30.445-63.831-34.323-99.57-1.614-14.877-2.108-29.875-3.164-44.814-.062-.875-.597-1.716-.912-2.573Zm260.415-387.359h502.087V261.212H260.415v125.429Zm179.175 40.043v366.528h143.964V498.654L439.59 426.683Z"/><path fill="#fefdfe" d="M260.415 386.641V261.212h502.087v125.429H260.415ZM439.59 426.684l143.964 71.971v294.558H439.59V426.684Z"/></svg>