<svg version="1.2" xmlns="http://www.w3.org/2000/svg" viewBox="0 0 1514 1069" width="1514" height="1069">
	<title>CHTR-svg</title>
	<defs>
		<clipPath clipPathUnits="userSpaceOnUse" id="cp1">
			<path d="m0.48 0.5h4473.52v1409.33h-4473.52z"/>
		</clipPath>
	</defs>
	<style>
		.s0 { fill: #1b619a } 
	</style>
	<g id="layer1">
		<g id="g1843">
			<g id="Clip-Path: Clip-Path: g1845" clip-path="url(#cp1)">
				<g id="Clip-Path: g1845">
					<g id="g1845">
						<g id="g1851">
						</g>
						<g id="g1875">
							<path id="path1853" class="s0" d="m1513.6 593v458.5h-131.1v-446.2c0-128.9-70.9-205.8-189.5-205.8-121.7 0-210 91.1-210 216.7v435.3h-131.1v-1051h131.1v358.3c57.4-55.6 131.7-85 219.6-85 186 0 311 128.3 311 319.2zm-799.6 241.6l91.1 91-25 22.6c-57 51.7-151.5 120.5-313.4 120.5-265.8 0-466.2-225.7-466.2-524.9 0-300.9 202.1-527.8 470.1-527.8 158.6 0 249.9 61.5 304.8 107.7l26.7 22.5-96.8 96.7-22.4-17.8c-67.1-53.4-133-77.2-213.6-77.2-190.8 0-334.6 168.9-334.6 393 0 222 147 395.9 334.6 395.9 84.2 0 152.7-25.7 222.2-83.5z"/>
						</g>
					</g>
				</g>
			</g>
		</g>
	</g>
</svg>