<svg id="svg" version="1.1" xmlns="http://www.w3.org/2000/svg" xmlns:xlink="http://www.w3.org/1999/xlink" width="400" height="400" viewBox="0, 0, 400,400"><g id="svgg"><path id="path0" d="M0.000 200.000 L 0.000 400.000 199.400 400.000 C 376.378 400.000,398.800 399.933,398.800 399.400 C 398.800 399.070,399.070 398.800,399.400 398.800 C 399.930 398.800,400.000 392.887,400.000 347.980 L 400.000 297.160 397.700 297.280 C 395.683 297.385,395.385 297.508,395.275 298.275 C 395.198 298.821,394.821 299.198,394.275 299.275 C 393.730 299.353,393.353 299.730,393.275 300.275 C 393.198 300.821,392.821 301.198,392.275 301.275 C 391.736 301.352,391.353 301.730,391.278 302.259 C 391.210 302.732,390.792 303.213,390.348 303.330 C 389.904 303.446,389.447 303.897,389.333 304.333 C 389.219 304.769,388.769 305.219,388.333 305.333 C 387.897 305.447,387.447 305.897,387.333 306.333 C 387.219 306.769,386.769 307.219,386.333 307.333 C 385.897 307.447,385.447 307.897,385.333 308.333 C 385.219 308.769,384.769 309.219,384.333 309.333 C 383.897 309.447,383.447 309.897,383.333 310.333 C 383.219 310.769,382.769 311.219,382.333 311.333 C 381.897 311.447,381.447 311.897,381.333 312.333 C 381.219 312.769,380.769 313.219,380.333 313.333 C 379.897 313.447,379.447 313.897,379.333 314.333 C 379.219 314.769,378.769 315.219,378.333 315.333 C 377.897 315.447,377.447 315.897,377.333 316.333 C 377.219 316.769,376.769 317.219,376.333 317.333 C 375.897 317.447,375.446 317.904,375.330 318.348 C 375.213 318.792,374.732 319.210,374.259 319.278 C 373.730 319.353,373.352 319.736,373.275 320.275 C 373.198 320.821,372.821 321.198,372.275 321.275 C 371.730 321.353,371.353 321.730,371.275 322.275 C 371.198 322.821,370.821 323.198,370.275 323.275 C 369.730 323.353,369.353 323.730,369.275 324.275 C 369.198 324.821,368.821 325.198,368.275 325.275 C 367.736 325.352,367.353 325.730,367.278 326.259 C 367.210 326.732,366.792 327.213,366.348 327.330 C 365.904 327.446,365.447 327.897,365.333 328.333 C 365.219 328.769,364.769 329.219,364.333 329.333 C 363.897 329.447,363.446 329.904,363.330 330.348 C 363.213 330.792,362.732 331.210,362.259 331.278 C 361.403 331.400,361.399 331.453,361.192 345.600 C 361.078 353.410,360.943 359.659,360.892 359.486 C 360.743 358.979,359.199 359.976,359.304 360.512 C 359.482 361.415,38.912 361.404,38.676 360.500 C 38.538 359.971,38.481 360.020,38.446 360.698 L 38.400 361.595 199.700 361.698 C 288.415 361.754,361.180 361.753,361.400 361.696 C 361.657 361.629,361.800 356.706,361.800 347.945 L 361.800 334.298 362.700 333.700 C 363.195 333.371,363.600 332.850,363.600 332.541 C 363.600 332.233,364.050 331.809,364.600 331.600 C 365.150 331.391,365.600 330.941,365.600 330.600 C 365.600 330.259,366.050 329.809,366.600 329.600 C 367.150 329.391,367.600 328.941,367.600 328.600 C 367.600 328.259,368.050 327.809,368.600 327.600 C 369.196 327.373,369.600 326.904,369.600 326.438 C 369.600 325.931,369.917 325.611,370.500 325.528 C 371.078 325.446,371.446 325.078,371.528 324.500 C 371.611 323.917,371.931 323.600,372.438 323.600 C 372.904 323.600,373.373 323.196,373.600 322.600 C 373.809 322.050,374.259 321.600,374.600 321.600 C 374.941 321.600,375.391 321.150,375.600 320.600 C 375.809 320.050,376.259 319.600,376.600 319.600 C 376.941 319.600,377.391 319.150,377.600 318.600 C 377.809 318.050,378.259 317.600,378.600 317.600 C 378.941 317.600,379.391 317.150,379.600 316.600 C 379.809 316.050,380.259 315.600,380.600 315.600 C 380.941 315.600,381.391 315.150,381.600 314.600 C 381.809 314.050,382.259 313.600,382.600 313.600 C 382.941 313.600,383.391 313.150,383.600 312.600 C 383.809 312.050,384.259 311.600,384.600 311.600 C 384.941 311.600,385.391 311.150,385.600 310.600 C 385.809 310.050,386.259 309.600,386.600 309.600 C 386.941 309.600,387.391 309.150,387.600 308.600 C 387.809 308.050,388.259 307.600,388.600 307.600 C 388.941 307.600,389.391 307.150,389.600 306.600 C 389.809 306.050,390.259 305.600,390.600 305.600 C 390.941 305.600,391.391 305.150,391.600 304.600 C 391.809 304.050,392.259 303.600,392.600 303.600 C 392.941 303.600,393.391 303.150,393.600 302.600 C 393.809 302.050,394.259 301.600,394.600 301.600 C 394.941 301.600,395.391 301.150,395.600 300.600 C 396.054 299.406,397.011 299.299,397.588 300.377 C 397.870 300.905,397.971 316.622,397.902 349.477 L 397.800 397.800 200.474 397.900 C 64.909 397.969,2.907 397.871,2.374 397.586 C 1.188 396.951,1.149 3.332,2.335 2.259 C 3.216 1.462,97.760 1.229,99.238 2.020 C 100.496 2.693,100.594 2.583,83.078 20.088 C 73.771 29.390,66.037 37.313,65.892 37.695 C 65.651 38.332,64.522 38.398,52.120 38.495 C 38.944 38.597,38.609 38.620,38.528 39.400 C 38.462 40.048,38.486 40.064,38.655 39.486 C 38.851 38.818,39.752 38.774,52.732 38.801 C 60.359 38.816,67.095 38.822,67.700 38.814 C 68.603 38.803,68.800 38.621,68.800 37.800 C 68.800 37.000,69.000 36.800,69.800 36.800 C 70.600 36.800,70.800 36.600,70.800 35.800 C 70.800 35.000,71.000 34.800,71.800 34.800 C 72.600 34.800,72.800 34.600,72.800 33.800 C 72.800 33.000,73.000 32.800,73.800 32.800 C 74.600 32.800,74.800 32.600,74.800 31.800 C 74.800 31.000,75.000 30.800,75.800 30.800 C 76.600 30.800,76.800 30.600,76.800 29.800 C 76.800 29.000,77.000 28.800,77.800 28.800 C 78.600 28.800,78.800 28.600,78.800 27.800 C 78.800 27.000,79.000 26.800,79.800 26.800 C 80.600 26.800,80.800 26.600,80.800 25.800 C 80.800 25.000,81.000 24.800,81.800 24.800 C 82.600 24.800,82.800 24.600,82.800 23.800 C 82.800 23.000,83.000 22.800,83.800 22.800 C 84.600 22.800,84.800 22.600,84.800 21.800 C 84.800 21.000,85.000 20.800,85.800 20.800 C 86.600 20.800,86.800 20.600,86.800 19.800 C 86.800 19.000,87.000 18.800,87.800 18.800 C 88.600 18.800,88.800 18.600,88.800 17.800 C 88.800 17.000,89.000 16.800,89.800 16.800 C 90.600 16.800,90.800 16.600,90.800 15.800 C 90.800 15.000,91.000 14.800,91.800 14.800 C 92.600 14.800,92.800 14.600,92.800 13.800 C 92.800 13.000,93.000 12.800,93.800 12.800 C 94.600 12.800,94.800 12.600,94.800 11.800 C 94.800 11.000,95.000 10.800,95.800 10.800 C 96.600 10.800,96.800 10.600,96.800 9.800 C 96.800 9.000,97.000 8.800,97.800 8.800 C 98.600 8.800,98.800 8.600,98.800 7.800 C 98.800 7.000,99.000 6.800,99.800 6.800 C 100.600 6.800,100.800 6.600,100.800 5.800 C 100.800 5.000,101.000 4.800,101.800 4.800 C 102.756 4.800,102.800 4.693,102.800 2.400 L 102.800 0.000 51.400 0.000 L 0.000 0.000 0.000 200.000 M55.905 40.683 C 56.402 40.779,57.122 40.775,57.505 40.675 C 57.887 40.575,57.480 40.496,56.600 40.501 C 55.720 40.505,55.407 40.587,55.905 40.683 " stroke="none" fill="#446484" fill-rule="evenodd"></path><path id="path1" d="M161.200 0.600 C 161.200 0.973,160.822 1.200,160.200 1.200 C 159.400 1.200,159.200 1.400,159.200 2.200 C 159.200 3.000,159.000 3.200,158.200 3.200 C 157.400 3.200,157.200 3.400,157.200 4.200 C 157.200 5.000,157.000 5.200,156.200 5.200 C 155.400 5.200,155.200 5.400,155.200 6.200 C 155.200 7.000,155.000 7.200,154.200 7.200 C 153.400 7.200,153.200 7.400,153.200 8.200 C 153.200 9.000,153.000 9.200,152.200 9.200 C 151.400 9.200,151.200 9.400,151.200 10.200 C 151.200 11.000,151.000 11.200,150.200 11.200 C 149.400 11.200,149.200 11.400,149.200 12.200 C 149.200 13.000,149.000 13.200,148.200 13.200 C 147.400 13.200,147.200 13.400,147.200 14.200 C 147.200 15.000,147.000 15.200,146.200 15.200 C 145.400 15.200,145.200 15.400,145.200 16.200 C 145.200 17.000,145.000 17.200,144.200 17.200 C 143.400 17.200,143.200 17.400,143.200 18.200 C 143.200 19.000,143.000 19.200,142.200 19.200 C 141.400 19.200,141.200 19.400,141.200 20.200 C 141.200 21.000,141.000 21.200,140.200 21.200 C 139.400 21.200,139.200 21.400,139.200 22.200 C 139.200 23.000,139.000 23.200,138.200 23.200 C 137.400 23.200,137.200 23.400,137.200 24.200 C 137.200 25.000,137.000 25.200,136.200 25.200 C 135.400 25.200,135.200 25.400,135.200 26.200 C 135.200 27.000,135.000 27.200,134.200 27.200 C 133.400 27.200,133.200 27.400,133.200 28.200 C 133.200 29.000,133.000 29.200,132.200 29.200 C 131.400 29.200,131.200 29.400,131.200 30.200 C 131.200 31.000,131.000 31.200,130.200 31.200 C 129.400 31.200,129.200 31.400,129.200 32.200 C 129.200 33.000,129.000 33.200,128.200 33.200 C 127.400 33.200,127.200 33.400,127.200 34.200 C 127.200 35.000,127.000 35.200,126.200 35.200 C 125.229 35.200,125.200 35.280,125.200 38.000 L 125.200 40.800 242.200 40.800 L 359.200 40.800 359.200 157.800 L 359.200 274.800 362.000 274.800 C 364.720 274.800,364.800 274.771,364.800 273.800 C 364.800 273.000,365.000 272.800,365.800 272.800 C 366.600 272.800,366.800 272.600,366.800 271.800 C 366.800 271.000,367.000 270.800,367.800 270.800 C 368.600 270.800,368.800 270.600,368.800 269.800 C 368.800 269.000,369.000 268.800,369.800 268.800 C 370.600 268.800,370.800 268.600,370.800 267.800 C 370.800 267.000,371.000 266.800,371.800 266.800 C 372.600 266.800,372.800 266.600,372.800 265.800 C 372.800 265.000,373.000 264.800,373.800 264.800 C 374.600 264.800,374.800 264.600,374.800 263.800 C 374.800 263.000,375.000 262.800,375.800 262.800 C 376.600 262.800,376.800 262.600,376.800 261.800 C 376.800 261.000,377.000 260.800,377.800 260.800 C 378.600 260.800,378.800 260.600,378.800 259.800 C 378.800 259.000,379.000 258.800,379.800 258.800 C 380.600 258.800,380.800 258.600,380.800 257.800 C 380.800 257.000,381.000 256.800,381.800 256.800 C 382.600 256.800,382.800 256.600,382.800 255.800 C 382.800 255.000,383.000 254.800,383.800 254.800 C 384.600 254.800,384.800 254.600,384.800 253.800 C 384.800 253.000,385.000 252.800,385.800 252.800 C 386.600 252.800,386.800 252.600,386.800 251.800 C 386.800 251.000,387.000 250.800,387.800 250.800 C 388.600 250.800,388.800 250.600,388.800 249.800 C 388.800 249.000,389.000 248.800,389.800 248.800 C 390.600 248.800,390.800 248.600,390.800 247.800 C 390.800 247.000,391.000 246.800,391.800 246.800 C 392.600 246.800,392.800 246.600,392.800 245.800 C 392.800 245.000,393.000 244.800,393.800 244.800 C 394.600 244.800,394.800 244.600,394.800 243.800 C 394.800 243.000,395.000 242.800,395.800 242.800 C 396.600 242.800,396.800 242.600,396.800 241.800 C 396.800 241.000,397.000 240.800,397.800 240.800 C 398.600 240.800,398.800 240.600,398.800 239.800 C 398.800 239.178,399.027 238.800,399.400 238.800 C 399.932 238.800,400.000 225.267,400.000 119.400 L 400.000 0.000 280.600 0.000 C 174.733 0.000,161.200 0.068,161.200 0.600 M397.986 3.174 C 398.555 4.237,398.567 238.000,397.998 238.000 C 397.777 238.000,389.858 245.747,380.399 255.215 C 364.982 270.647,363.119 272.385,362.398 271.999 C 361.596 271.570,361.595 271.394,361.697 154.586 L 361.800 37.603 379.398 20.002 C 398.023 1.374,397.349 1.984,397.986 3.174 M38.800 39.809 L 38.800 40.818 51.800 40.734 C 60.648 40.676,64.802 40.514,64.806 40.225 C 64.810 39.935,64.906 39.932,65.106 40.213 C 65.547 40.834,66.598 40.685,66.613 40.000 C 66.638 38.881,65.812 38.812,52.300 38.806 L 38.800 38.800 38.800 39.809 M397.829 295.829 C 396.853 296.804,397.076 297.200,398.600 297.200 C 399.827 297.200,400.000 297.076,400.000 296.200 C 400.000 295.025,398.832 294.825,397.829 295.829 M359.818 333.840 C 359.254 334.403,359.191 335.949,359.289 346.840 L 359.400 359.200 199.100 359.200 L 38.800 359.200 38.800 360.200 L 38.800 361.201 199.100 361.100 C 329.445 361.019,359.400 360.904,359.400 360.485 C 359.400 359.880,360.421 359.166,360.881 359.450 C 361.056 359.558,361.200 353.697,361.200 346.424 C 361.200 333.219,361.125 332.533,359.818 333.840 M398.800 399.400 C 398.800 399.730,399.070 400.000,399.400 400.000 C 399.730 400.000,400.000 399.730,400.000 399.400 C 400.000 399.070,399.730 398.800,399.400 398.800 C 399.070 398.800,398.800 399.070,398.800 399.400 " stroke="none" fill="#f4b233" fill-rule="evenodd"></path><path id="path2" d="M2.901 199.900 L 3.000 397.000 200.100 397.100 L 397.200 397.201 397.160 348.900 C 397.138 322.335,396.996 301.050,396.844 301.600 C 396.677 302.202,396.226 302.650,395.708 302.725 C 395.180 302.801,394.801 303.186,394.725 303.725 C 394.647 304.270,394.270 304.647,393.725 304.725 C 393.179 304.802,392.802 305.179,392.725 305.725 C 392.646 306.279,392.270 306.647,391.700 306.728 C 391.049 306.820,390.800 307.124,390.800 307.828 C 390.800 308.598,390.592 308.800,389.800 308.800 C 389.070 308.800,388.800 309.014,388.800 309.592 C 388.800 310.099,388.448 310.473,387.823 310.630 C 387.228 310.779,386.798 311.213,386.723 311.738 C 386.647 312.270,386.265 312.648,385.725 312.725 C 385.179 312.802,384.802 313.179,384.725 313.725 C 384.648 314.265,384.270 314.647,383.738 314.723 C 383.213 314.798,382.779 315.228,382.630 315.823 C 382.473 316.448,382.099 316.800,381.592 316.800 C 381.014 316.800,380.800 317.070,380.800 317.800 C 380.800 318.592,380.598 318.800,379.828 318.800 C 379.124 318.800,378.820 319.049,378.728 319.700 C 378.647 320.270,378.279 320.646,377.725 320.725 C 377.179 320.802,376.802 321.179,376.725 321.725 C 376.647 322.270,376.270 322.647,375.725 322.725 C 375.179 322.802,374.802 323.179,374.725 323.725 C 374.646 324.279,374.270 324.647,373.700 324.728 C 373.049 324.820,372.800 325.124,372.800 325.828 C 372.800 326.591,372.591 326.800,371.828 326.800 C 371.124 326.800,370.820 327.049,370.728 327.700 C 370.647 328.270,370.279 328.646,369.725 328.725 C 369.179 328.802,368.802 329.179,368.725 329.725 C 368.646 330.279,368.270 330.647,367.700 330.728 C 367.125 330.809,366.800 331.132,366.800 331.620 C 366.800 332.111,366.426 332.479,365.756 332.647 C 364.818 332.882,364.734 333.054,364.920 334.354 C 365.034 335.149,365.038 335.575,364.930 335.300 C 364.822 335.025,364.293 334.800,363.754 334.800 L 362.775 334.800 362.800 344.900 C 362.814 350.455,362.820 356.754,362.813 358.898 L 362.800 362.796 200.243 362.799 C 52.276 362.802,37.665 362.745,37.443 362.168 C 36.933 360.838,37.188 359.528,38.000 359.316 C 39.266 358.985,39.266 41.015,38.000 40.684 C 36.783 40.366,36.863 37.788,38.100 37.441 C 38.595 37.302,44.880 37.243,52.067 37.310 L 65.133 37.433 65.357 36.316 C 65.480 35.702,65.825 35.200,66.123 35.200 C 66.422 35.200,66.667 34.930,66.667 34.600 C 66.667 34.270,66.517 34.000,66.333 34.000 C 66.150 34.000,66.000 33.749,66.000 33.443 C 66.000 32.765,67.082 32.285,67.411 32.817 C 67.826 33.490,69.137 33.227,69.394 32.420 C 69.530 31.992,69.964 31.538,70.360 31.413 C 70.755 31.287,71.282 30.738,71.531 30.192 C 71.779 29.647,72.279 29.200,72.641 29.200 C 73.169 29.200,73.250 28.941,73.051 27.900 C 72.884 27.032,72.924 26.792,73.172 27.177 C 73.633 27.895,75.600 27.148,75.600 26.255 C 75.600 25.946,75.958 25.600,76.395 25.485 C 76.833 25.371,77.368 24.810,77.585 24.239 C 77.802 23.667,78.255 23.200,78.590 23.200 C 78.926 23.200,79.200 22.926,79.200 22.590 C 79.200 22.255,79.667 21.802,80.239 21.585 C 80.810 21.368,81.371 20.833,81.485 20.395 C 81.600 19.958,81.946 19.600,82.255 19.600 C 83.148 19.600,83.895 17.633,83.177 17.172 C 82.789 16.923,83.016 16.881,83.867 17.044 C 84.977 17.257,85.149 17.170,85.267 16.343 C 85.352 15.738,85.707 15.356,86.259 15.278 C 86.732 15.210,87.213 14.792,87.330 14.348 C 87.446 13.904,87.897 13.447,88.333 13.333 C 88.769 13.219,89.216 12.783,89.326 12.363 C 89.435 11.943,89.807 11.600,90.152 11.600 C 90.497 11.600,91.059 11.060,91.400 10.400 C 91.741 9.740,92.274 9.200,92.583 9.200 C 92.893 9.200,93.257 8.849,93.394 8.420 C 93.530 7.992,93.972 7.536,94.377 7.407 C 94.782 7.279,95.210 6.806,95.327 6.357 C 95.445 5.908,95.914 5.443,96.370 5.324 C 96.827 5.204,97.200 4.853,97.200 4.543 C 97.200 4.234,97.695 3.760,98.300 3.490 C 99.178 3.099,90.194 2.979,53.833 2.898 C 13.406 2.808,8.191 2.866,7.591 3.408 C 6.985 3.957,6.862 3.957,6.408 3.410 C 6.114 3.055,5.253 2.800,4.352 2.800 L 2.802 2.800 2.901 199.900 M94.283 5.049 C 94.466 5.597,92.891 6.071,92.577 5.562 C 92.232 5.005,92.800 4.341,93.504 4.478 C 93.850 4.545,94.201 4.802,94.283 5.049 M77.772 20.755 C 77.893 20.950,77.739 21.318,77.431 21.574 C 76.808 22.092,76.169 21.497,76.600 20.800 C 76.906 20.305,77.480 20.283,77.772 20.755 M31.346 41.287 C 31.002 41.843,30.421 41.210,30.673 40.554 C 30.859 40.069,30.981 40.046,31.229 40.447 C 31.404 40.730,31.457 41.108,31.346 41.287 M369.255 334.210 L 368.931 335.400 368.734 334.098 C 368.527 332.724,368.735 332.175,369.263 332.703 C 369.437 332.877,369.433 333.555,369.255 334.210 M373.307 353.497 C 373.139 353.937,373.018 353.953,372.781 353.570 C 372.612 353.296,372.572 352.816,372.693 352.503 C 372.861 352.063,372.982 352.047,373.219 352.430 C 373.388 352.704,373.428 353.184,373.307 353.497 M365.319 359.467 C 364.938 360.459,364.519 359.326,364.736 357.891 L 364.931 356.600 365.240 357.734 C 365.410 358.357,365.445 359.138,365.319 359.467 M31.327 359.446 C 31.141 359.931,31.019 359.954,30.771 359.553 C 30.396 358.946,30.700 358.291,31.210 358.606 C 31.405 358.727,31.458 359.105,31.327 359.446 M361.934 364.750 C 362.359 365.020,362.331 365.141,361.797 365.346 C 361.005 365.650,360.290 365.302,360.617 364.772 C 360.899 364.315,361.238 364.310,361.934 364.750 M367.119 366.992 C 366.526 367.470,364.800 367.533,364.800 367.077 C 364.800 366.704,365.175 366.594,366.019 366.717 C 366.689 366.816,367.184 366.939,367.119 366.992 M394.300 388.652 C 395.001 388.840,395.193 389.171,395.168 390.147 C 395.151 390.836,395.046 391.175,394.935 390.900 C 394.824 390.625,394.318 390.400,393.809 390.400 C 392.886 390.400,392.198 389.451,392.622 388.764 C 392.884 388.340,393.085 388.326,394.300 388.652 M7.140 390.100 C 7.086 391.274,7.064 391.296,6.916 390.324 C 6.793 389.519,6.481 389.207,5.676 389.084 C 4.704 388.936,4.726 388.914,5.900 388.860 C 7.124 388.804,7.196 388.876,7.140 390.100 " stroke="none" fill="#0b2c54" fill-rule="evenodd"></path><path id="path3" d="M379.398 20.002 L 361.800 37.603 361.697 154.586 C 361.595 271.394,361.596 271.570,362.398 271.999 C 363.119 272.385,364.982 270.647,380.399 255.215 C 389.858 245.747,397.777 238.000,397.998 238.000 C 398.567 238.000,398.555 4.237,397.986 3.174 C 397.349 1.984,398.023 1.374,379.398 20.002 " stroke="none" fill="#fc641c" fill-rule="evenodd"></path><path id="path4" d="M2.265 2.328 C 1.141 3.571,1.250 396.984,2.374 397.586 C 2.907 397.871,64.909 397.969,200.474 397.900 L 397.800 397.800 397.902 349.477 C 397.971 316.622,397.870 300.905,397.588 300.377 C 397.011 299.299,396.054 299.406,395.600 300.600 C 395.391 301.150,394.941 301.600,394.600 301.600 C 394.259 301.600,393.809 302.050,393.600 302.600 C 393.391 303.150,392.941 303.600,392.600 303.600 C 392.259 303.600,391.809 304.050,391.600 304.600 C 391.391 305.150,390.941 305.600,390.600 305.600 C 390.259 305.600,389.809 306.050,389.600 306.600 C 389.391 307.150,388.941 307.600,388.600 307.600 C 388.259 307.600,387.809 308.050,387.600 308.600 C 387.391 309.150,386.941 309.600,386.600 309.600 C 386.259 309.600,385.809 310.050,385.600 310.600 C 385.391 311.150,384.941 311.600,384.600 311.600 C 384.259 311.600,383.809 312.050,383.600 312.600 C 383.391 313.150,382.941 313.600,382.600 313.600 C 382.259 313.600,381.809 314.050,381.600 314.600 C 381.391 315.150,380.941 315.600,380.600 315.600 C 380.259 315.600,379.809 316.050,379.600 316.600 C 379.391 317.150,378.941 317.600,378.600 317.600 C 378.259 317.600,377.809 318.050,377.600 318.600 C 377.391 319.150,376.941 319.600,376.600 319.600 C 376.259 319.600,375.809 320.050,375.600 320.600 C 375.391 321.150,374.941 321.600,374.600 321.600 C 374.259 321.600,373.809 322.050,373.600 322.600 C 373.373 323.196,372.904 323.600,372.438 323.600 C 371.931 323.600,371.611 323.917,371.528 324.500 C 371.446 325.078,371.078 325.446,370.500 325.528 C 369.917 325.611,369.600 325.931,369.600 326.438 C 369.600 326.904,369.196 327.373,368.600 327.600 C 368.050 327.809,367.600 328.259,367.600 328.600 C 367.600 328.941,367.150 329.391,366.600 329.600 C 366.050 329.809,365.600 330.259,365.600 330.600 C 365.600 330.941,365.150 331.391,364.600 331.600 C 364.050 331.809,363.600 332.233,363.600 332.541 C 363.600 332.850,363.195 333.371,362.700 333.700 L 361.800 334.298 361.800 347.945 C 361.800 356.706,361.657 361.629,361.400 361.696 C 361.180 361.753,288.393 361.754,199.650 361.698 L 38.301 361.595 38.546 360.369 C 38.750 359.352,38.674 359.166,38.100 359.276 C 37.306 359.429,37.021 360.432,37.372 361.833 L 37.616 362.802 200.208 362.799 L 362.800 362.796 362.813 358.898 C 362.820 356.754,362.814 350.455,362.800 344.900 L 362.775 334.800 363.754 334.800 C 364.293 334.800,364.822 335.025,364.930 335.300 C 365.038 335.575,365.034 335.149,364.920 334.354 C 364.734 333.054,364.818 332.882,365.756 332.647 C 366.426 332.479,366.800 332.111,366.800 331.620 C 366.800 331.132,367.125 330.809,367.700 330.728 C 368.270 330.647,368.646 330.279,368.725 329.725 C 368.802 329.179,369.179 328.802,369.725 328.725 C 370.279 328.646,370.647 328.270,370.728 327.700 C 370.820 327.049,371.124 326.800,371.828 326.800 C 372.591 326.800,372.800 326.591,372.800 325.828 C 372.800 325.124,373.049 324.820,373.700 324.728 C 374.270 324.647,374.646 324.279,374.725 323.725 C 374.802 323.179,375.179 322.802,375.725 322.725 C 376.270 322.647,376.647 322.270,376.725 321.725 C 376.802 321.179,377.179 320.802,377.725 320.725 C 378.279 320.646,378.647 320.270,378.728 319.700 C 378.820 319.049,379.124 318.800,379.828 318.800 C 380.598 318.800,380.800 318.592,380.800 317.800 C 380.800 317.070,381.014 316.800,381.592 316.800 C 382.099 316.800,382.473 316.448,382.630 315.823 C 382.779 315.228,383.213 314.798,383.738 314.723 C 384.270 314.647,384.648 314.265,384.725 313.725 C 384.802 313.179,385.179 312.802,385.725 312.725 C 386.265 312.648,386.647 312.270,386.723 311.738 C 386.798 311.213,387.228 310.779,387.823 310.630 C 388.448 310.473,388.800 310.099,388.800 309.592 C 388.800 309.014,389.070 308.800,389.800 308.800 C 390.592 308.800,390.800 308.598,390.800 307.828 C 390.800 307.124,391.049 306.820,391.700 306.728 C 392.270 306.647,392.646 306.279,392.725 305.725 C 392.802 305.179,393.179 304.802,393.725 304.725 C 394.270 304.647,394.647 304.270,394.725 303.725 C 394.801 303.186,395.180 302.801,395.708 302.725 C 396.226 302.650,396.677 302.202,396.844 301.600 C 396.996 301.050,397.138 322.335,397.160 348.900 L 397.200 397.201 200.100 397.100 L 3.000 397.000 2.901 199.900 L 2.802 2.800 4.352 2.800 C 5.253 2.800,6.114 3.055,6.408 3.410 C 6.862 3.957,6.985 3.957,7.591 3.408 C 8.191 2.866,13.406 2.808,53.833 2.898 C 90.194 2.979,99.178 3.099,98.300 3.490 C 97.695 3.760,97.200 4.234,97.200 4.543 C 97.200 4.853,96.827 5.204,96.370 5.324 C 95.914 5.443,95.445 5.908,95.327 6.357 C 95.210 6.806,94.782 7.279,94.377 7.407 C 93.972 7.536,93.530 7.992,93.394 8.420 C 93.257 8.849,92.893 9.200,92.583 9.200 C 92.274 9.200,91.741 9.740,91.400 10.400 C 91.059 11.060,90.497 11.600,90.152 11.600 C 89.807 11.600,89.435 11.943,89.326 12.363 C 89.216 12.783,88.769 13.219,88.333 13.333 C 87.897 13.447,87.446 13.904,87.330 14.348 C 87.213 14.792,86.732 15.210,86.259 15.278 C 85.707 15.356,85.352 15.738,85.267 16.343 C 85.149 17.170,84.977 17.257,83.867 17.044 C 83.016 16.881,82.789 16.923,83.177 17.172 C 83.895 17.633,83.148 19.600,82.255 19.600 C 81.946 19.600,81.600 19.958,81.485 20.395 C 81.371 20.833,80.810 21.368,80.239 21.585 C 79.667 21.802,79.200 22.255,79.200 22.590 C 79.200 22.926,78.926 23.200,78.590 23.200 C 78.255 23.200,77.802 23.667,77.585 24.239 C 77.368 24.810,76.833 25.371,76.395 25.485 C 75.958 25.600,75.600 25.946,75.600 26.255 C 75.600 27.148,73.633 27.895,73.172 27.177 C 72.924 26.792,72.884 27.032,73.051 27.900 C 73.250 28.941,73.169 29.200,72.641 29.200 C 72.279 29.200,71.779 29.647,71.531 30.192 C 71.282 30.738,70.755 31.287,70.360 31.413 C 69.964 31.538,69.530 31.992,69.394 32.420 C 69.137 33.227,67.826 33.490,67.411 32.817 C 67.082 32.285,66.000 32.765,66.000 33.443 C 66.000 33.749,66.150 34.000,66.333 34.000 C 66.517 34.000,66.667 34.270,66.667 34.600 C 66.667 34.930,66.422 35.200,66.123 35.200 C 65.825 35.200,65.480 35.702,65.357 36.316 L 65.133 37.433 52.067 37.310 C 44.880 37.243,38.586 37.304,38.079 37.446 C 36.922 37.770,36.922 40.503,38.079 40.722 C 38.600 40.821,38.739 40.590,38.679 39.725 L 38.600 38.600 52.115 38.495 C 64.521 38.398,65.651 38.332,65.892 37.695 C 66.037 37.313,73.771 29.390,83.078 20.088 C 100.594 2.583,100.496 2.693,99.238 2.020 C 97.647 1.169,3.042 1.470,2.265 2.328 M92.614 4.778 C 92.470 5.010,92.454 5.363,92.577 5.562 C 92.891 6.071,94.466 5.597,94.283 5.049 C 94.081 4.441,92.937 4.255,92.614 4.778 M76.600 20.800 C 76.169 21.497,76.808 22.092,77.431 21.574 C 77.739 21.318,77.893 20.950,77.772 20.755 C 77.480 20.283,76.906 20.305,76.600 20.800 M30.673 40.554 C 30.542 40.895,30.595 41.273,30.790 41.394 C 31.300 41.709,31.604 41.054,31.229 40.447 C 30.981 40.046,30.859 40.069,30.673 40.554 M368.742 332.591 C 368.630 332.703,368.626 333.381,368.734 334.098 L 368.931 335.400 369.255 334.210 C 369.552 333.119,369.230 332.103,368.742 332.591 M372.693 352.503 C 372.572 352.816,372.612 353.296,372.781 353.570 C 373.018 353.953,373.139 353.937,373.307 353.497 C 373.428 353.184,373.388 352.704,373.219 352.430 C 372.982 352.047,372.861 352.063,372.693 352.503 M364.736 357.891 C 364.519 359.326,364.938 360.459,365.319 359.467 C 365.445 359.138,365.410 358.357,365.240 357.734 L 364.931 356.600 364.736 357.891 M30.654 358.713 C 30.543 358.892,30.596 359.270,30.771 359.553 C 31.019 359.954,31.141 359.931,31.327 359.446 C 31.579 358.790,30.998 358.157,30.654 358.713 M360.617 364.772 C 360.290 365.302,361.005 365.650,361.797 365.346 C 362.331 365.141,362.359 365.020,361.934 364.750 C 361.238 364.310,360.899 364.315,360.617 364.772 M364.800 367.077 C 364.800 367.461,365.114 367.540,365.900 367.351 C 367.408 366.990,367.420 366.923,366.019 366.717 C 365.175 366.594,364.800 366.704,364.800 367.077 M392.622 388.764 C 392.198 389.451,392.886 390.400,393.809 390.400 C 394.318 390.400,394.824 390.625,394.935 390.900 C 395.046 391.175,395.151 390.836,395.168 390.147 C 395.193 389.171,395.001 388.840,394.300 388.652 C 393.085 388.326,392.884 388.340,392.622 388.764 M5.676 389.084 C 6.481 389.207,6.793 389.519,6.916 390.324 C 7.064 391.296,7.086 391.274,7.140 390.100 C 7.196 388.876,7.124 388.804,5.900 388.860 C 4.726 388.914,4.704 388.936,5.676 389.084 " stroke="none" fill="#0b2c5c" fill-rule="evenodd"></path></g></svg>