<svg version="1.2" xmlns="http://www.w3.org/2000/svg" viewBox="0 0 1379 1584" width="1379" height="1584">
	<title>proshares-logo-vector-svg</title>
	<style>
		.s0 { fill: #639a1c } 
		.s1 { fill: #00526a } 
	</style>
	<g id="Layer">
	</g>
	<g id="Layer">
		<path id="Layer" class="s0" d="m763.6 809.2c-41.2-1.2-82.4-5-124.8-10-379.4-48.6-664-264.5-636.5-482.9 28.7-217.2 359.4-354.4 738.8-305.8 379.4 48.7 658.9 264.6 636.5 483-11.3 98.6-86.2 183.4-112.4 199.7 47.5-132.3-112.3-391.9-370.6-424.3-265.8-35-496.7 61.1-516.7 213.4-17.4 139.7 151 279.5 385.7 326.9z"/>
		<path id="Layer" class="s1" d="m303.1 1194.8c131 76.2 341.9-23.7 471.7-222.1 126-193.4 127.3-409.3 6.2-490.4 35 5 68.7 16.2 99.9 33.7 187.2 108.5 189.7 428 6.2 712.5-184.7 284.6-486.7 426.8-673.9 318.3-187.2-108.6-189.7-426.8-6.2-712.6 19.9-31.2 42.4-61.2 64.9-89.9-101.1 186-89.9 380.7 31.2 450.5z"/>
	</g>
	<g id="Layer">
	</g>
</svg>