<svg xmlns="http://www.w3.org/2000/svg" width="218" height="82.076" viewBox="0 0 218 82.076"><g transform="translate(-0.135 -0.127)"><path d="M138.108,38.242c.772-.6.694-1.393,1.586-1.9,1.8-1.023,5.141-.252,7.606-.4V52.818c0,1.471.095,4.361-.794,4.913-.476.3-1.388,0-1.584.476a50.511,50.511,0,0,0,8.4,0c-.544-.649-1.878.005-2.614-.713s-.574-3.457-.633-4.913c-.225-5.614.108-11.852.079-16.714,2.657.292,7.208-.691,8.079,1.265.155.345-.059,1.43.476,1.348a20.973,20.973,0,0,0,.238-4.2,83.353,83.353,0,0,1-11.011.319c-3.19,0-6.384.184-8.873-.557a8.794,8.794,0,0,0-.952,4.2ZM12.144,34.677c-.353.491-1.577.113-1.9.633a13.557,13.557,0,0,0,.951,4.913c1.305,4.658,2.6,9.18,3.96,13.864,1.4-3.172,2.608-6.51,3.883-9.824C20.3,40.986,21.5,37.665,23,34.6c.748.473.912,1.451,1.189,2.217,2.033,5.62,4.21,11.573,6.338,17.19,1.611-4.513,2.972-9.015,4.435-13.7a12.75,12.75,0,0,0,1.032-4.833c-.3-.649-1.511-.39-2.14-.713.331-.556,1.091-.262,1.663-.238,1.755.078,3.916-.133,5.467.081-.26.556-.909.28-1.427.473-1.724.647-2.55,4.421-3.248,6.5-1.653,4.928-3.27,9.663-5.07,14.657-.3.841-.757,2.586-1.268,2.614-.752.042-1.918-3.986-2.138-4.594-1.8-4.975-3.617-9.788-5.387-14.657-2.3,5.583-4.415,11.215-6.733,17.113-.285.721-.79,2.131-1.268,2.138-.6.008-1-1.761-1.268-2.614C11.33,50.321,9.53,44.808,7.707,38.877c-.665-2.172-.757-3.55-3.168-3.962-.2-.035-.811.2-.792-.316.064-.017.079-.081.159-.081a36.037,36.037,0,0,1,4.2.081c1.471,0,2.96-.387,4.04.078Zm40.4,8.952c-.1,4.865,5.987,6.157,7.287,9.348,1.988,4.872-5.457,6.3-7.051,3.013-.248-.515-.236-1.231-.475-1.9a7.122,7.122,0,0,0-.238,3.8c4.518,2.065,9.886.25,9.9-4.437.01-2.933-2.128-4.5-3.962-5.862-1.334-.995-3.454-2.32-3.722-3.962-.657-4.011,5.169-4.519,6.416-2.14.225.429.172,1.091.556,1.506a18.05,18.05,0,0,0,.236-3.327c-4.259-1.132-8.865-.13-8.951,3.96Zm47.613-4.357c6.105-.115,10.908,3.4,10.457,10.141a9.975,9.975,0,0,1-10.3,9.348c-5.551.01-10.251-3.648-10.14-9.983a10.061,10.061,0,0,1,2.932-6.733,9.776,9.776,0,0,1,7.051-2.773Zm17.587,0h-.159c-.005-.049-.012-.095-.079-.079,0,.1-.138.073-.159.159-.4,2.621-.7,5.75-1.11,9.427-.147,1.336-.355,2.94-.554,4.675-.149,1.3-.2,3.854-.951,4.357-.4.269-1.061.16-1.425.317.633.51,1.724.155,2.692.157.991,0,2.184.351,2.852-.157-.458-.2-1.414-.071-1.743-.556-.419-.618-.083-2.273,0-3.248.289-3.388.664-7.211.951-9.983,1.179,2.359,2.373,4.757,3.565,7.13a46.351,46.351,0,0,0,3.8,6.892c2.677-4.5,4.678-9.685,7.289-14.259.378,4.479.856,8.86,1.267,13.31.064.378-.339.294-.316.632a7.356,7.356,0,0,0,2.613.238c1.049.049,2.292.319,3.011-.157-.741-.221-1.817-.066-2.454-.556-.9-.692-.954-2.878-1.11-4.2-.5-4.232-.9-8.154-1.346-12.041-.089-.752.056-1.685-.557-2.14-2.81,5.188-5.2,10.8-8,16-2.64-5.362-5.348-10.656-8.081-15.924Zm72.964,3.406c-.449-.426-.253-1.025-.554-1.427-.866-1.147-3.508-.469-5.308-.711-.184,2.3-.029,4.936-.081,7.367,2.106-.113,4.828.39,5.943-.713a34.345,34.345,0,0,1-.394,3.644c-.461-.4-.187-1.044-.476-1.425-.821-1.077-3.432-.275-4.992-.635a35.026,35.026,0,0,0-.081,3.724c-.061,1.412-.372,3.773.4,4.516s4.42.635,5.386,0c.637-.417.708-1.228,1.03-1.981.417.3.162,1.164.079,1.743a3.441,3.441,0,0,1-.476,1.584c-3.474.218-7.112-.118-10.455-.079-.128-.437.947-.157,1.348-.554a6.249,6.249,0,0,0,.473-2.614c.165-3.651.243-9.675,0-13.31-.1-1.566-.772-1.864-2.217-1.981.525-.48,2.209-.2,3.091-.157,2.082.093,6.488.1,7.6-.318.064.015.079.079.157.079-.24,1-.167,2.314-.475,3.248Zm16.162-3.327a4.775,4.775,0,0,1-1.745.318c-2.9.144-6.531-.27-8.951.079.189.334,1.395.133,1.822.554.458.449.4,2.028.4,3.327,0,3.778.142,8.221,0,11.33-.039.89-.084,2.388-.476,2.771s-1.481.113-1.344.554c3.34-.034,6.985.3,10.457.079a3.442,3.442,0,0,0,.475-1.584c.081-.6.324-1.437-.079-1.743-.348.469-.228,1.118-.554,1.584-.758,1.093-5.105,1.126-5.864.4-.773-.746-.544-3.359-.473-4.913.049-1.126.062-2.342.157-3.327,1.56.365,4.173-.448,4.992.635.287.383.012,1.035.473,1.425.3-1.045.147-2.55.476-3.565-.5-.079-.691.419-1.268.556-1.314.311-3.231-.071-4.752.078.054-2.429-.1-5.07.079-7.367,1.714.26,4.428-.436,5.308.633.336.409.1.978.476,1.5a8.186,8.186,0,0,0,.4-3.327Zm-159.4.4c-.1.3-1.081.181-1.425.475-.584.5-.421,3.03-.475,4.278-.142,3.2.062,6.188.078,9.27.008,1.539-.093,3.6.635,4.04.456.277,1.457.074,1.822.317-.407.432-1.143.24-1.743.236-1.523-.007-3.317.005-4.833-.079.022-.4,1.089-.226,1.427-.554.562-.547.475-2.886.475-4.2V44.342c0-1.493.159-3.594-.475-4.119-.446-.37-1.326-.14-1.427-.475-.012-.093.017-.142.079-.159,2.022.159,4.09-.176,5.862.159ZM75.365,58.6c5.9-.09,10.16-3.332,10.537-8.952a9.085,9.085,0,0,0-2.378-7.21c-3.346-3.432-10.312-2.883-17.19-2.851-.079,0-.095.064-.159.079v.157c.495.181,1.544.111,1.9.556.485.6.317,2.738.317,4.119v9.032c0,1.317.1,3.514-.4,4.119-.3.375-1.332.3-1.5.556,2.825.054,6.134.437,8.873.4Zm95.226-8.794c1.034,1.38,2.266,2.815,3.486,4.278,1.574,1.89,3.009,3.876,6.259,4.041-.3.427-1.089.236-1.663.236-2.19,0-3.58-.144-4.754-1.268-1.935-1.851-3.675-4.967-5.308-6.654-1.2.017-2.238-.138-3.486-.079a31.018,31.018,0,0,0-.079,3.884c.042,1.2-.069,2.861.476,3.4.51.51,1.265.166,2.06.476-.378.436-1.116.236-1.665.236-1.495,0-3.248,0-4.754-.079-.115-.4.963-.238,1.268-.475.8-1.946.554-5.139.554-8.556v-4.6c0-1.412.226-3.469-.316-4.2-.451-.6-1.645-.309-1.9-.79.062-.015.079-.079.16-.079,5.381.16,12.161-1.049,12.752,3.96.351,2.959-1.623,4.665-3.089,6.259ZM92.635,48.3c.017,5.139,3.148,9.6,8.4,9.506,4.514-.076,7.156-3.761,7.128-8.635-.027-5.207-3.229-9.51-8.633-9.032-4.6.407-6.909,3.492-6.894,8.16ZM70.77,40.7a2.078,2.078,0,0,1,.713-.238c7.122-.855,12.082,3,12.121,8.954.032,4.61-2.643,7.915-7.21,8.317-2,.176-3.974.1-5.465-.951-.525-2.334-.317-5.2-.317-8A73.693,73.693,0,0,1,70.77,40.7Zm98.951,8.635c1.5-.745,1.919-3.19,1.741-4.911-.309-2.986-3.038-4.793-6.338-3.8-.184,2.667-.025,5.676-.079,8.476a6.331,6.331,0,0,0,4.676.236Z" transform="translate(2.488 23.361)"/><path d="M82.605.84c-.529.924-1.726,1.18-2.771,1.586.019.454.333.616.4,1.03h2.456c.6-.429.843-1.218,1.427-1.665.746.046,1.344.242,2.06.316V3.613c1,.3,1.961,1.106,1.187,2.3.868.87,1.937.039,2.694-.4a5.093,5.093,0,0,1,2.614-1.03c.3.336-.015.843.079,1.427.851.162,1.915-.493,1.267-1.427,1.484-.37,2.479-1.635,4.357-1.346a1.3,1.3,0,0,1-.713,1.822,7.01,7.01,0,0,1,.317.79c1.066.426,1.875-.468,2.614-.554,1.157-.133,2.214.637,3.327.871-.135.684-.846.79-1.425,1.03.144.226.508.231.633.476a4.09,4.09,0,0,1,3.962-.317,3.1,3.1,0,0,1-2.852.951c-.284.5-.941.9-.713,1.663.579.079,1.28-.743,2.217-.951,1.5-.331,3.43-.321,3.962.633-.059.311-.311.432-.4.713a13.551,13.551,0,0,1-1.348-.554,16.76,16.76,0,0,0-1.821.792c-.554.794-1.088,1.606-1.586,2.456.5.525,2.172,1.013,2.773.238a2,2,0,0,1,1.584-2.3c.38-.12.559.588.951.713-.083.471-.7.409-.87.792,1.365.539,1.545-.892,2.456-1.268.289.267.741.368,1.028.633.02,1.155-1.3.973-1.346,2.06,1.545,1.042,3.467-.4,3.8-1.822,1.376-.025,1.691,1.189,1.346,2.456a5.415,5.415,0,0,0-.951.319c.182,1.388,1.135,2.2,2.852,1.821v-.949c1.152-.471,2.722-1.214,4.04-.4-.289.826-1.326,1.576-1.9,2.378a22.808,22.808,0,0,1,3.644,1.189v.792c-.767.15-2.119.226-2.217-.554a10.6,10.6,0,0,0-1.346.078c-.473.625-.086.947.079,1.665-.745.285-1.429.63-2.14.951-.007.29.208.621.079.792-.589.23-1.231.407-1.268,1.187a3.1,3.1,0,0,0,2.694-.711c.689-.476,1.316-.824,1.425-1.745.736.11,1.613.078,2.3.238a23.623,23.623,0,0,0,2.06-1.189,9.477,9.477,0,0,0,1.028.554c-.373.393-1.045.486-1.346.952.765,1.2,4.031-.839,4.04,1.425a20.3,20.3,0,0,1-2.138.317c.258.9,1.339.985,2.059,1.425a4.79,4.79,0,0,1,5.149,1.187,7.287,7.287,0,0,1-1.5.556c.806.223,1.829.231,2.694.4.269.549.643.993.87,1.586-.5.372-1.226.515-1.03,1.582a7.771,7.771,0,0,0-1.108-.4c-.279.329-.4.812-.792,1.03-1.371.157-1.628-.8-2.219-1.425.218-.363.485-.677.713-1.03a5.571,5.571,0,0,0-1.582-.4c-.3.334-.375.893-.635,1.268.238.542.231,1,.475,1.425.5.873,1.81,1.206,1.506,2.535a14.524,14.524,0,0,1-1.743.317c-.193-.285-.49-.461-.4-1.03-.385-.061-.6-.292-1.106-.238-.426.746-.4,1.461-1.348,1.348-1.008-.122-1.177-1.616-1.584-2.378a4.478,4.478,0,0,0-1.189,1.03,2.5,2.5,0,0,0,.4.951c-1.457.193-3-.3-4.04.4-.329.331-.427.893-.792,1.189a3.588,3.588,0,0,1-2.535-.714,3.132,3.132,0,0,1,.871-.554,7.515,7.515,0,0,1,.157-1.506c-.236-.554-.809-.773-1.108-1.267-.79,1.091-3.033,2.689-3.327.079-.7-.272-1.26.532-1.981.633-1.351.189-2.592-.5-3.724,0-.973.429-1.067,1.38-2.06,1.822a1.955,1.955,0,0,1-1.821,1.663c-.576.039-1.132-.388-1.822-.157-.841.279-1.488,1.179-2.3,1.743A7.228,7.228,0,0,1,97.1,38.311c-1.243.149-2.349-.2-3.883,0-1.165.152-1.782,1.177-2.93,1.822-2.052,1.155-4.818,1.157-6.576,1.9a7.522,7.522,0,0,0-.713,4.2c.039.317.255.669.317,1.03.231,1.361.074,1.959,1.5,2.138,3.188.4,7,.047,10.3.317,3.221.263,6.836.235,10.062.475,9.935.741,19.881,1.427,29.232,2.614a72.908,72.908,0,0,1,9.111,1.427,23.718,23.718,0,0,1-5.149-.317c-9.158-.836-18.815-1.319-28.441-1.743-34.08-1.5-71.334-.848-103.227,2.14.113-.407.66-.346.951-.4,5.391-.954,11.15-1.486,16.954-2.06,8.123-.8,16.4-1.5,24.876-1.9,1.675-.078,3.6-.1,5.308-.236,3.871-.317,8.35-.377,12.121-.871.743-.1,1.893-.456,1.981-1.189.044-.375-.145-.941-.159-1.584-.02-.986.323-1.944.079-2.616-.365-1-2.636-1.385-3.406-2.138-1.361-.052-2.5.478-3.883.4-.978-.057-1.893-.567-2.852-.554-1.18.015-2.224.625-3.406.633-1.454.01-2.957-.174-4.437-.238a36.332,36.332,0,0,1-3.96-.318c-1.368-.214-2.726-.873-4.2-1.028-1.4-.15-2.827.405-4.278.157-.887-.15-1.7-1.1-2.694-1.267a15.578,15.578,0,0,0-4.041.159c-1.061.333-1.782,1.7-3.248,1.9-1.734.238-2.906-.426-4.437-1.032-.424.238-.654.669-1.03.952-2.067-.26-1.866-2.861-4.437-2.694-1.067.068-1.741.9-2.773,1.187l-1.663-1.11c.625-3.043-2.891-2.17-3.644-.951v1.506c-.571.049-1.356-.385-1.9-.318-.307.039-.716.532-1.187.633-1.235.269-3.791-.066-3.962-.949-.228-1.187,1.375-1.309,1.348-2.378-.02-.767-.915-.594-.476-1.5a3.738,3.738,0,0,1-2.694-.633,9.009,9.009,0,0,1,1.9-2.217c-.461-.569-1.856-.206-2.694-.4-.517-.954.115-1.589.556-2.219C.9,28.562.1,28.474.135,27.7c.032-.8,1.376-.963,2.14-1.425a5.865,5.865,0,0,0,1.741-1.9,1.433,1.433,0,0,0,1.743-.713c.686.108,1.246.339,1.9.475.154-.235-.25-.589-.316-.87a3.345,3.345,0,0,1,1.108-1.268c.444.4,1.074.618,1.506,1.032a2.016,2.016,0,0,1,2.3.236c.662-.289,1.177-.725,1.822-1.03-.419-.473-1.081-.819-.871-1.743.348-1.533,3.932-.833,5.7-1.663.608-.285.681-.757,1.108-1.11a7.835,7.835,0,0,1,2.773.079,11.9,11.9,0,0,0,1.981-1.5c-.307-.448-.755-.373-1.348-.238.171-.306.3-.65.476-.951a6.428,6.428,0,0,0,3.486-.951,3.032,3.032,0,0,0-.317,2.614c.914-.329,1.7-.78,2.614-1.108.029-.39-.6-.76-.949-1.03V13.357c.736-.451,1.93-.459,2.692-1.425.51-.645.63-1.608,1.586-1.5.784.081,1.01.865.949,1.979h1.663c-.144,2.342-4.033-.427-3.881,2.14a4.087,4.087,0,0,0,4.675-.476c.866.137,1.918.09,2.773.238a2.206,2.206,0,0,0,.792-.713c-1.285-.539-2.856-.79-3.408-2.06.522-.059,1-.16,1.189-.556.035-.483-.714-.182-.792-.552.1-.589.677-.7,1.11-.952.088-1.341-1.851-.978-2.614-.633-1.75-.665-.034-3.5,1.425-3.091.567.16.552.944.792,1.586.6-.328,1.007-.844,1.586-1.189,1.714.326.495,1.863.157,2.773A15.142,15.142,0,0,0,41.41,8.6,2.7,2.7,0,0,1,41.094,7.1a3.571,3.571,0,0,1,1.979-.554A5.618,5.618,0,0,0,43.866,5.2c1.115.681,2.011,1.581,3.091,2.3.034.363-.081.873.078,1.111a1.631,1.631,0,0,0,1.11-.159,11.552,11.552,0,0,1,1.348,1.108c.432-.228.807-.512,1.267-.713A22.26,22.26,0,0,0,49.491,6.7c-.681-.137-1.233-.405-1.9-.556a13.907,13.907,0,0,0-1.584-2.059H44.421a16.422,16.422,0,0,1,.713-1.663c.995.535,3.334-.272,3.644.949,1.039-.071,2.427.211,3.009-.316,0-.846-.684-1.007-.554-1.983A3.343,3.343,0,0,1,53.372.84c.184.382-.125.709-.078,1.189.844.334,3.015-.393,2.851.635-.09.561-.768.274-1.346.475-.095.594.478.525.475,1.028-.635.77-.426,2.172-.316,3.408.41.014,1.018-.459,1.584-.556-.833-1.186-.221-2.246.159-3.563h1.663c.466-.777.427-2.057,1.425-2.3.709.269,1.191.763,1.9,1.03-.544.961-1.387,1.623-1.981,2.535,1.226,1.471,3.68-.323,4.278-1.189-.27-.363-.824-.444-1.108-.792.608-1.324,2.825-.4,3.881-.078.642-.312,1.01-.893,1.665-1.189a4.334,4.334,0,0,0,2.376.87,3.5,3.5,0,0,1-.159,1.506c1.2.138,1.14-.971,1.9-1.268a4.512,4.512,0,0,0,3.089.556c.4-.844-.331-1.253-.871-1.427.973-.559,1.986-1.076,3.011-1.584a6.365,6.365,0,0,1,1.5.792C80.216.74,81.812.2,82.605.84ZM80.467,5.356c-.057.868-.8,1.045-1.268,1.5,1.256.949,4.131.513,4.675-.713-.292-.79-.272-1.893-1.11-2.138-.409.833-.949,1.682-2.3,1.346ZM67.791,4.246A4.651,4.651,0,0,1,66.6,5.2a15.815,15.815,0,0,1-1.5-.871c-.444.588-1.405.993-.792,1.981,1.04.042,1.907.26,2.932.316.635-.525,1.517-.806,1.743-1.741-.446-.162-.64-.576-1.189-.635Zm-25.51,6.418a7.822,7.822,0,0,1,.951.554,3.564,3.564,0,0,0,1.425-1.028c-.157-1.007-1.55-1.2-2.217-1.427a4.321,4.321,0,0,1-.159,1.9Zm9.191-.236a5.247,5.247,0,0,0,.4.633c-.247.149-.589.2-.633.554-.24,1.768-2.412,1.53-4.119,1.268V13.6c.974.372,1.967.725,2.93,1.108a9.386,9.386,0,0,1,1.189-1.582,12.466,12.466,0,0,0,1.346.316,3.453,3.453,0,0,1,.079-1.108c2.06-.133,4.1-.289,4.357-2.221-.341-1.03-2.351-1.81-2.376,0C53.9,9.659,53.294,9.079,52.5,8.683c-.309.616-.768,1.081-1.03,1.745Zm17.19-.952a11.979,11.979,0,0,1-2.138,1.03c-.176.591-.539.993-.713,1.586.524.689,1.174,1.253,1.662,1.979a10.4,10.4,0,0,1-1.108,2.694c.946-.074,1.378.365,2.06.556.431-.689,1.511-1.023,1.267-2.14.6-.184,1.3-.628,1.189-1.268-.495-.311-1.216.522-1.665,0,.007-.892.682-1.113.951-1.741a10.339,10.339,0,0,1-.236-1.9c-.459-.226-.809-.564-1.268-.792Zm18.222,3.091c.108.576.321,1.052.4,1.663q-.912.674-1.9,1.267c.564,1.047,1.343,1.881,1.981,2.854a7.9,7.9,0,0,1,1.584.4c1.184-.586,2.27-1.268,2.3-3.011A1.662,1.662,0,0,0,89.1,15.1V12.96c-.711-.3-1.417-1.067-2.217-.4Zm7.6,1.981c.117-1.348-2.141-1.43-2.457-.4.2.118.437.2.556.4a4.045,4.045,0,0,0-.792.792c.115.253.3.444.4.713,1.716.464,3.9.545,4.675-.871a10.511,10.511,0,0,1-2.376-.633ZM59.869,17.714a9.358,9.358,0,0,1-1.11-1.267c-.385.064-.537.358-.871.475.6.485,1.432,2.214.318,2.456-1.045.226-1.517-1.12-2.376-1.346-.285.454-.812.667-1.03,1.187a8.824,8.824,0,0,1,1.187.635c-.218.36-.632.53-.792.951a4.961,4.961,0,0,0,3.091.316c-.084.446-.1.954-.159,1.427.166.257.52.324.713.554,1.405-1.42,4.811-.843,6.1-2.376a4.164,4.164,0,0,1-1.348-.951c.691-.444,1.616-.657,1.9-1.5-.736-.346-2.1-.071-3.091-.159A3.835,3.835,0,0,1,62.166,17c.986-.135,1.094-1.53.951-2.537-1.973.194-2.479,1.853-3.248,3.249Zm-18.379-.792c.154-1.106-2.537-1.444-3.565-.871a10.81,10.81,0,0,0,.951,1.5c1.025-.061,2.5.159,2.614-.633Zm65.518,1.584a21.441,21.441,0,0,1,1.5,1.822c.649-.326.708-1.02,1.5-1.11.746-.083,1.68.681,2.376.081a9.059,9.059,0,0,0-.316-1.745,7.574,7.574,0,0,1-2.3.079c-.4-.4-.415-1.167-.713-1.663-.2,1.329-1.17,1.893-2.059,2.535ZM80.783,16.922v.871c.51-.022,1.194-.284,1.665-.079a2.964,2.964,0,0,0-.079.871,3.261,3.261,0,0,1,2.456.714,8.843,8.843,0,0,0,1.584-.794,11.152,11.152,0,0,1-1.822-.556c.218-2.219-2.55-1.4-3.8-1.028Zm-35.57,1.5c.439.194.721.545,1.187.713.312-.269.692-.469,1.03-.713-.123-.757.341-.925.4-1.5-.848.027-1.495-.144-2.3-.159a12.746,12.746,0,0,1-.316,1.663Zm24.8-.633c-.14.547-.621.753-1.268.792.062-.326-.122-.405-.079-.713-.7-.373-1.356.145-2.06.238a5.216,5.216,0,0,1,1.11,3.406c1.961.176,2.993,1.285,4.754,1.663.78-.407,1.527-.849,2.3-1.268.88.223,2.454.512,2.694-.316.265-.917-.914-1.13-1.189-1.822.243-.287.946-.111,1.427-.159.223-.49.419-1.007.633-1.5-1.057-.061-1.976.594-2.851.475-.713-.1-1.037-.789-1.745-.871-.468.377-.512,1.177-.633,1.9.333.3.777.491,1.11.792-.667.442-1.191,1.028-1.9,1.427-.824-.339-2.123-.2-2.376-1.11.209-.135.5-.184.713-.317.005-.4-.28-.512-.317-.871a7.1,7.1,0,0,0,1.11-1.348c-.164-.655-.821-.718-1.425-.4Zm-20.2,0c-1.5.245-2.167,1.733-2.14,3.248a4.05,4.05,0,0,0,2.773-.871,6.127,6.127,0,0,0,1.11,1.981c.8-.125,1.464-.383,2.3-.476a9.659,9.659,0,0,0,.238-2.3,5.565,5.565,0,0,1-1.268.633c-.248-.174-.6-.247-.713-.554a7.211,7.211,0,0,0,.871-1.187c-.422-.584-2.246-.627-3.168-.476Zm-20.678.238c-.985,1.211-5.048.333-4.516,2.694.265,1.175,4.041.9,4.754,0a8.555,8.555,0,0,1-.951-1.11,7.482,7.482,0,0,0,1.267-1.189c-.2-.111-.365-.269-.554-.4Zm15.211,2.059c.336-1.434-3.7-1.984-5.229-2.059a.781.781,0,0,1-.317.713c-.856.4-1.817-.007-2.694.159-.892.166-1.657.92-2.456,1.03a10.066,10.066,0,0,0,1.03,1.5c1.484-.39,2.587-1.164,4.673-.951.5.329,1.309,1.422,1.665,1.348.051-.451-.1-1.108.079-1.427.86.206,3.035.591,3.248-.317Zm52.524,4.278c.242.393.426.843.871,1.03.5-.184.99-.383,1.5-.554-.145-1.491,1.213-1.481,1.586-2.456-.409-.812-1.62-.5-2.3-.159-.458-.334-.615-.969-1.108-1.267a7.74,7.74,0,0,1-.556,3.4ZM31.507,22.7c-.414,1.118-2.52.544-3.565,1.03-.334.966.554,1.262,1.586,1.11.567.355.62,1.228,1.584,1.189V25c1.3-.073,2.619-.128,2.851-1.268a4.387,4.387,0,0,0-2.456-1.03Zm7.606,3.8c-.551-.839-.144-2.93-1.743-2.062-.557,1.609-1.616,2.717-4.2,2.3.372.372.681,1.366,1.348,1.584.37.122.821-.083,1.189.078.515.23.38.882,1.03,1.349,1.51,1.088,4.621-.373,5.544-1.111.35-.277.9-.691.792-.949-1.731-.405-3.194-.019-3.96-1.187Zm-28.441.711c.4.856,1.032,1.667,1.981,1.584.853-.073,2.354-1.49,3.009-1.741-1.56-.579-3.08-1.2-3.8-2.616-.365.958-.858,1.785-1.189,2.773ZM9.4,25.4c-.4-1.474-2.635.209-2.613.713.01.258.782.62,1.028.871.757-.4,1.859-.579,1.584-1.584ZM117.86,26.983a10.041,10.041,0,0,0-3.248,3.091c1.322-.1,2.581-.272,3.248-1.03a10.279,10.279,0,0,0,1.822.317c.324-.3,1.089-.956.951-1.189a9.193,9.193,0,0,1-2.773-1.189Zm-17.032.794c-.235.645-1.635,1.049-1.822,1.981-.2.98.593,2.038.4,2.93-.269,1.221-3.1,1.444-4.119.792a5.369,5.369,0,0,0,.159-1.187c-.784-.073-1.572-.334-1.981.236a1.984,1.984,0,0,1,.079.792,1.378,1.378,0,0,1-2.219-.951,1.462,1.462,0,0,0,.871-.554V30.549h-.633c-.167.255-.064.78-.4.871-.564-.01-.986.122-1.5.157v-.949c-1.057-.187-1.338.4-1.663.949a17.388,17.388,0,0,1,2.378,2.3c-.37.184-.549.561-.951.713-2.716-1.716-3.526,2.265-6.338,1.11-.262,1.111-.54,2.206-.792,3.327,1.138-.184,1.971-.822,3.168-1.03,1.135-.2,2.42.095,3.565-.238.7-.2,1.408-.905,2.3-1.189a8.052,8.052,0,0,1,1.506-.316c1.41-.137,3.523.485,4.754-.159.534-.28.912-1.275,1.425-1.584.258-.155.718-.144,1.108-.318.35-.155.637-.491.951-.633a9.962,9.962,0,0,1,3.17-.871c.306-.821.123-1.709.554-2.3.277-.377,1.03-.307.951-.951a2.486,2.486,0,0,0-2.773.236,4.753,4.753,0,0,0-.159.873c-.37.078-.659.236-1.028.316a1.483,1.483,0,0,1-.4-1.5c.444-.243.969-.4.792-1.268a6.55,6.55,0,0,1-1.346-.316Zm5.387,4.119c.789-.4,1.381-1.711,2.3-1.9,1.091-.228,3.7.735,4.6-.159a.931.931,0,0,0-.635-1.584c-.969-.125-1.9.706-2.614.792-1.069.128-1.368-.706-2.3-.475-.13,1.375-1.064,2.369-1.346,3.327Zm-90-1.822v1.743a18.32,18.32,0,0,0,2.376,1.03,20.908,20.908,0,0,1,.792-2.14c-1.108-.275-2.123-1.432-3.168-.633Zm6.654,4.437a15.713,15.713,0,0,0,.159-2.14c.591-.174.993-.537,1.584-.711V30.391c-2.955-.127-4.465,1.473-3.722,4.6-.843-.348-1.682-.7-2.537-1.03V35.3a7.309,7.309,0,0,0,3.724.316,4.566,4.566,0,0,1,.4,1.032c.966-.3,1.608-.027,2.456-.317.73-.252,1.089-1.094,1.743-1.187.676-.1,1.2.388,2.06.4-.138-2.577-4.406-2.1-5.864-1.03ZM52.9,33.876a3.927,3.927,0,0,1-1.981-1.03,2.247,2.247,0,0,0-.316-1.187c-.591-.681-3.525-.674-3.8.236,1.233,1.012,2.217,2.271,4.516,2.219a7.1,7.1,0,0,1,.475,1.03c.711-.024,1.233.138,1.981.078a9.906,9.906,0,0,0,3.644,2.06c1.907.341,4.112-.3,5.862.079.978.209,1.52.9,2.378,1.108a6.674,6.674,0,0,0-3.091-3.881c-.054.748-.7,1.354-1.5.871-.029-.314.073-.76-.079-.951-1.218-.289-3.168.159-2.773-1.743-.524-.655-2.081-1.457-2.932-.792C55.182,33.6,56.9,33.412,57.1,34.748c-.106.393-.679.323-1.187.316-.569-.3-.7-1.04-.871-1.743-.186.025-.3.125-.556.079.341,1.935-1.118,1.81-1.584.476Zm-39.611-2.3c-1,.057-1.653.971-2.614,1.03-.8.051-1.707-.865-2.456-.079.184,1.824,2.113,2.32,3.8,2.378.039-.41-.084-.985.079-1.268a5.175,5.175,0,0,0,3.249-.792c-.7-.41-1.407-.812-2.06-1.268Zm18.459.873c.154.947,2.168.574,3.248.554.285-1.052-3.5-2.126-3.248-.554Zm43.1-.792a18.112,18.112,0,0,1-.871,1.979,2.773,2.773,0,0,1,.4,1.11,7.7,7.7,0,0,1-4.6.633c.236.583,1.216,1.11,1.584,1.822,1.376.378,2.785,1.108,4.675.713.806-1.28,1.9-2.277,2.456-3.8a3.309,3.309,0,0,1-1.267-.4c-.012-.755.11-1.642-.317-1.981a10.793,10.793,0,0,0-2.06-.078ZM40.777,33.321c-.3,1.059,1.2,1.736.318,2.854-1.125.328-2.185-.63-2.852-1.268.159-.312.473-.821.238-1.268a1.429,1.429,0,0,0-1.743,1.584c.052.534.8,1,.79,1.506s-.422.768-.713,1.028c1.081,1.26,2.959.868,4.833.873,1.528,0,2.874.714,4.278.792,1.886.1,3.832-.811,5.625-.792.336-.537.485-1.258.951-1.665.537.01.919-.135,1.5-.079-.746-1.848-5.837.934-5.546-1.822-1.4-.233-2.4-.87-4.119-.792.12.436,1.022.773,1.346,1.268a4.143,4.143,0,0,1-2.694.475c-.814-.721.431-1.734,0-2.771a6.673,6.673,0,0,0-2.217.078ZM16.534,35.145c-.123-.439.123-.858,0-1.189-.353-.959-1.457-.444-1.979.4.257.164.615.23.713.556-.1.8-1.1.692-1.425,1.268a3.352,3.352,0,0,0,3.4.078c.081-.437-.593-.687-.713-1.108Zm17.192.711c-1.393-.831-2.422,1.192-3.962,1.427-1.439.22-1.846-.454-3.168-.714-.713.714-1.074,1.778-1.743,2.537,1.128.24,2.116.887,3.248.713S29.85,38.289,31.191,38c1.169-.257,1.961-.024,3.406-.238-.3-.721-.321-1.572-.871-1.9ZM57.175,38.63c-1.224-.285-2.221-1.314-4.04-.873-.358.488-.564,1.126-.951,1.584a13.834,13.834,0,0,0-2.932.633c2.13-.074,4.21.535,6.259.317,1.2-.127,2.131-.731,3.327-.633,1.741.142,3.386.917,4.833,0-1.219-1.305-4.45-.556-6.5-1.028Z" transform="translate(0)"/><path d="M128.6,36.18a3.373,3.373,0,1,1-3.374,3.373A3.377,3.377,0,0,1,128.6,36.18Zm0,6.147a2.775,2.775,0,1,0-2.776-2.775,2.774,2.774,0,0,0,2.776,2.775ZM127.3,37.6h1.488c.925,0,1.36.417,1.36,1.162a.976.976,0,0,1-.925,1.059l1.01,1.633h-.745l-.963-1.577h-.517v1.577H127.3V37.6Zm.708,1.679h.517c.436,0,.915-.029.915-.545s-.48-.544-.915-.535h-.517v1.081Z" transform="translate(86.164 24.834)"/></g></svg>