<svg version="1.2" baseProfile="tiny-ps" xmlns="http://www.w3.org/2000/svg" viewBox="0 0 1558 898" width="1558" height="898">
	<title>Danaher_Corporation_logo-svg</title>
	<defs>
		<clipPath clipPathUnits="userSpaceOnUse" id="cp1">
			<path d="M-0.07 0.94L1584.5 0.94L1584.5 897.29L-0.07 897.29L-0.07 0.94Z" />
		</clipPath>
	</defs>
	<style>
		tspan { white-space:pre }
		.shp0 { fill: #145199 } 
	</style>
	<g id="layer1">
		<g id="g20850">
			<g id="Clip-Path: g20730" clip-path="url(#cp1)">
				<g id="g20730">
					<path id="path20728" class="shp0" d="M1550.98 178.71C1496.87 -1.59 1138.34 -53.42 750.18 63.39C731.79 68.64 713.93 74.63 696.07 80.73C1043.14 0.2 1344.71 53.29 1392.42 212.46C1444.96 386.98 1172.81 623 784.65 739.59C775.61 742.22 767 744.74 758.17 747.26L939.01 122.05L938.17 122.16L938.59 122.05L891.2 125.31C802.51 134.14 708.15 152.64 611.59 181.55C223.43 298.35 -47.46 539 6.86 719.62C60.98 899.92 419.61 951.54 807.87 834.84C826.16 829.37 844.23 823.49 861.99 817.6C514.81 897.92 213.23 845.04 165.42 685.87C112.99 511.14 385.14 275.23 773.41 158.53C781.6 156.11 789.8 153.69 797.89 151.38L619.47 775.97L666.86 772.92C755.54 764.09 849.9 745.48 946.36 716.57C1334.52 599.87 1605.2 359.01 1550.98 178.71" />
				</g>
			</g>
		</g>
	</g>
</svg>