<svg version="1.2" baseProfile="tiny-ps" xmlns="http://www.w3.org/2000/svg" viewBox="0 0 1779 1766" width="1779" height="1766">
	<title>apple-touch-icon-svg</title>
	<style>
		tspan { white-space:pre }
		.shp0 { fill: #ec0303 } 
	</style>
	<g id="#ec0303ff">
		<path id="Layer" fill-rule="evenodd" class="shp0" d="M244.7 95.6C314.5 44.6 395.5 -6.7 485.9 2.1C483.8 67.9 466.4 131.9 458.4 197C424.6 408.5 460.9 621.7 483 832.3C581.5 776.1 697.2 751.8 809.9 764.7C880.4 771.7 947.2 801.4 999.9 848.6C991.1 793 960.3 745.7 932.4 698.2C966.6 681.6 1000.2 657.9 1039 655.3C1062.6 680.7 1073.5 715 1079 748.6C1087.7 801.9 1093.1 855.8 1094.2 909.8C1157 896.8 1220.9 891.1 1285 889.5C1270.5 852 1249.8 817.3 1237.3 779C1203.2 677.2 1195 566.5 1215.5 461C1243.1 321.3 1326.7 196.6 1435.2 106.2C1507.5 50.3 1592 -4.3 1687.3 1C1688.6 94.5 1658.5 184.5 1652.8 277.4C1640.8 451.8 1662.8 626.1 1684.5 798.9C1715 770.8 1747.5 745 1779 718.1L1779 799C1750.8 826.5 1718.3 849.8 1693.8 880.8C1690.9 926.7 1697.3 972.7 1698.1 1018.6C1711 1176.2 1689.7 1336.2 1638.2 1485.5C1608.5 1569.2 1571.5 1653.9 1507.5 1717.2C1472.5 1753 1419.7 1776.8 1369.9 1760.1C1312.8 1739.7 1288 1675.8 1282.9 1619.9C1266.3 1426.4 1343.7 1238.9 1445.6 1078.5C1402.7 1039.2 1369.7 990.3 1327 951.1C1251 926.5 1169.9 951 1094.5 967.4C1088.8 1003.6 1085.3 1040.5 1073.2 1075.3C1065.6 1094.8 1052.7 1119.8 1027.6 1115C1006.1 1076.8 1014.5 1031 1011.1 989.1C904.3 1002.4 784.9 1009.9 690.7 948.2C652.9 925.4 638.4 880.8 639.6 838.6C589 854.5 536.6 871 494.2 904.2C485 937.9 494.2 974.6 493.7 1009.4C504.5 1192.6 482 1380.3 409.6 1550C377 1621.6 338.7 1695.8 272.6 1742.1C236.6 1768.4 185.2 1773.8 145.9 1751.6C112.6 1731.8 93.5 1694.9 84.7 1658.3C68 1589.4 75.3 1517.5 87.4 1448.5C106.7 1342.5 140.9 1238.5 194.1 1144.5C207.3 1120.7 223.3 1098.3 233.5 1073C187.3 1019.8 135.9 970.6 98 910.6C30.7 810.4 -1.3 689 1.1 568.8C-1.8 383.2 100.5 207.5 244.7 95.6ZM282.8 143.9C151.8 301.6 113 521.2 149.2 719.7C166 826.7 214.8 927.3 282.7 1011C303.4 986.7 324.8 963 346.9 939.8C330.3 844.4 313.1 748.9 304.3 652.4C292.1 498.8 319.4 343.9 373.5 200.2C390.5 153.4 410.9 107.8 426.3 60.4C366.7 57.4 320.4 103.6 282.8 143.9ZM1443.8 203.2C1341.3 363.9 1321.4 565.7 1359.4 749.7C1379.5 847.7 1428.6 936.9 1488.3 1016.1C1507.3 989.9 1529.9 966.3 1546.5 938.5C1544.3 854.8 1518.1 773.3 1513 689.6C1494.9 531.9 1515.9 370.3 1570.1 221.3C1588.2 166.7 1615.4 115.2 1628.7 59C1545.6 67.5 1485.3 136.3 1443.8 203.2ZM784.2 844.9C762.5 866.4 780.7 901.7 805.6 911.4C865.1 938.8 934.9 939 997.9 924.8C964.4 884.7 921.1 851.1 869.4 838.9C841.7 832.4 808.9 826.7 784.2 844.9ZM275.1 1144.9C203.9 1270.5 156.1 1413.4 158.8 1559C159.2 1600.1 178.6 1656.3 228.4 1654.7C290.4 1647.6 324.2 1585.5 345.6 1533.5C406.9 1371 389.2 1192.7 362 1025.1C327.5 1060.7 300.5 1102.6 275.1 1144.9ZM1402.7 1324.9C1372.9 1409 1353.2 1500.2 1367.9 1589.4C1373.2 1623.5 1399.6 1660.4 1438.5 1654.1C1498.5 1643.2 1530.2 1582.6 1551.1 1531.1C1610.2 1370.3 1595.3 1194.2 1566.3 1028.7C1496.9 1118.1 1441.5 1218.6 1402.7 1324.9Z" />
	</g>
</svg>