<svg version="1.2" xmlns="http://www.w3.org/2000/svg" viewBox="0 0 1368 1543" width="1368" height="1543">
	<title>digital-realty-vector-logo-svg</title>
	<style>
		.s0 { fill: #378aca } 
		.s1 { fill: #1d48a4 } 
	</style>
	<path id="Layer" fill-rule="evenodd" class="s0" d="m1367.7 290.9v950l-556.8 227v-187.9l-92.8 28.3v196.9l-92.7 37.8v-1543l92.4 35.9v271.2l92.7 22.5v-256.9l278.6 109.1v168.8l92.7 22v110.8l92.7 17.9v-128.4l-92.5-27.2v-127.6c0 0 185.7 72.8 185.7 72.8zm-464.5 136.5l93 17.9v-154.1l-93-27.2c0 0.2 0 163.4 0 163.4zm-185.6 214.1l92.7 5.7v-154.6l-92.7-13.8zm92.9 307.3l-92.9 10.6v168.4l92.9-17.9c0 0 0-161.1 0-161.1zm185.6-92.3l-92.9 6v-135.3l-92.7-1.6v143.2l92.7-6.3v294.9l92.9-22.4zm0-127l93 1.6v-137.4l-93-10c0 0.1 0 145.8 0 145.8zm185.9 303.9h-0.1v0.7h0.1zm-92.9 18.8v143.2l92.9-28.3v-133l92.9-19c0-0.1 0-349.4 0-349.4l-93-6.3v374z"/>
	<path id="Layer" class="s1" d="m541.4 15.1v1501.9l-541.4-285.7v-935.5z"/>
</svg>