<svg version="1.2" baseProfile="tiny-ps" xmlns="http://www.w3.org/2000/svg" viewBox="0 0 1552 1498" width="1552" height="1498">
	<title>logo (2)-svg</title>
	<style>
		tspan { white-space:pre }
		.shp0 { fill: #23b2a9 } 
		.shp1 { fill: #71be45 } 
		.shp2 { fill: #2cb5e5 } 
		.shp3 { fill: #1b4d4a } 
	</style>
	<path id="Layer" class="shp0" d="M1285 815.25C1180.64 903.92 1224.53 1043.94 1267.37 1123.29C1321.11 1222.34 1252.51 1368.41 1158.69 1451.04C1386.77 1321.39 1542.44 1079.38 1551.09 800.21C1480.24 753.88 1361.37 750.25 1285 815.24L1285 815.25Z" />
	<path id="Layer" class="shp1" d="M741.07 1038.41C591.44 911.53 460.47 972.9 371.14 1077.83C280.6 1184.14 405.35 1215.95 575.72 1254.67C704.27 1283.88 688.37 1458.64 700.3 1497.89C853.9 1249.83 809.67 1096.5 741.07 1038.41L741.07 1038.41Z" />
	<path id="Layer" class="shp2" d="M981.59 265.19C1236.62 463.29 1012.35 564.42 1012.35 564.42C1157.14 687.5 1303.66 451.71 1460.89 586.37C1502.53 621.98 1529.15 665.2 1548.84 711.53C1522.41 389.65 1299.51 123.27 1000.25 33.04C882.76 84.72 835.93 152.14 981.59 265.19L981.59 265.19Z" />
	<path id="Layer" class="shp3" d="M365.44 948.35C307.56 790.18 381.17 717.23 632.39 538.32C949.8 312.21 453.39 392.42 655.37 188.79C726.91 116.7 827.47 60.69 901.76 10.22C860.81 3.65 818.83 0.02 775.98 0.02C347.47 0.02 0.18 347.47 0.18 776C0.18 793.29 0.87 810.23 2.08 827.17C119.05 935.73 264.02 1006.08 365.44 948.35L365.44 948.35Z" />
</svg>