<svg version="1.2" baseProfile="tiny-ps" xmlns="http://www.w3.org/2000/svg" viewBox="0 0 1511 1700" width="1511" height="1700">
	<title>Screenshot 2021-10-01 at 09-svg</title>
	<style>
		tspan { white-space:pre }
		.shp0 { fill: #00007b } 
	</style>
	<g id="#00007bff">
		<path id="Layer" fill-rule="evenodd" class="shp0" d="M0.93 0.01C246.61 0.18 492.29 0.09 737.98 0.09C868.25 -0.16 1000.6 5.7 1125.78 45.23C1198.47 66.92 1268.73 101.76 1325.06 153.51C1428.3 248.64 1452.33 410.59 1400.42 538.05C1382.06 587.2 1343.09 623.71 1305.29 658.22C1237.52 713.74 1155.49 750.83 1069.87 768C1069.62 774.03 1069.2 786.09 1068.95 792.12C1137.55 805.94 1204.64 827.79 1267.57 858.44C1360.95 907.01 1445.49 981.46 1485.13 1081.28C1520.18 1178.92 1523.01 1292.14 1478.87 1387.35C1438.23 1484.07 1354.02 1556.26 1262.06 1602.4C1120.44 1680.61 955.12 1697.7 796.14 1699.96C531.18 1700.12 266.22 1700.21 1.34 1699.87C1.09 1678.35 1.18 1656.83 2.18 1635.39C64.93 1630.79 139.79 1630.37 184.1 1578.03C219.4 1541.02 220.82 1486.42 222.41 1438.26C222.41 1044.6 222.41 650.93 222.41 257.26C222.41 203.92 215.98 141.95 170.67 106.7C122.68 70.02 58.92 68.59 1.26 64.32C1.26 42.89 1.26 21.45 0.93 0.01ZM648.52 106.03C645.01 111.05 638 121.18 634.5 126.21C628.9 146.89 622.73 167.74 622.98 189.35C622.9 380.45 623.06 571.54 622.98 762.64C718.12 760.88 818.68 756.28 903.96 709.21C972.81 669.69 996.85 587.87 1007.86 514.1C1018.46 418.88 1015.21 320.32 985.16 228.71C968.22 189.1 952.53 145.55 915.9 119.76C863.66 77.81 792.64 74.46 728.63 77.81C699.59 78.48 672.22 89.78 648.52 106.03ZM622.81 1463.3C622.15 1499.98 624.98 1539.51 645.93 1570.91C669.63 1605.24 713.86 1616.63 753.25 1618.06C832.86 1617.89 919.57 1606.92 980.82 1550.81C1037.91 1496.55 1062.19 1417.41 1073.37 1341.46C1084.39 1235.28 1082.97 1123.73 1040.16 1024.16C1017.96 967.72 974.73 921.92 924.08 889.93C831.61 843.95 725.63 837.51 624.06 839.6C621.48 1047.44 623.9 1255.37 622.81 1463.3Z" />
	</g>
</svg>