<svg version="1.2" xmlns="http://www.w3.org/2000/svg" viewBox="0 0 1455 1653" width="1455" height="1653">
	<title>Sanofi-2022-svg</title>
	<style>
		.s0 { fill: #000000 } 
		.s1 { fill: #7a00e6 } 
	</style>
	<path id="Layer" class="s0" d="m1209.5 1620.4c-46.4 0-92.7 0.8-139.1 0-47.1-0.7-63.1-22-50.2-69.2 9.2-34.2 16.8-68.5 17.5-104.2 1.5-90.6-35.7-160.6-107.9-212.3-53.2-38.1-112.5-63.9-174.1-83.7-101.9-32.7-205.2-63.2-307.1-95.9-82.9-26.6-161.9-60.1-234.1-109.6-121.7-83.7-182.5-199.3-189.3-346.2-12.9-265.5 134.5-461.1 377-547.8 111.8-39.6 228.1-53.3 345.9-50.2 187.8 5.3 367.9 42.6 538.2 123.2 24.3 11.4 47.9 23.6 71.4 37.3 48.7 27.4 60.9 61.6 40.3 113.4-7.6 19-16.7 38-25.1 57-23.5 49.5-46.3 99.7-70.6 149.2-27.4 56.3-71.5 71.5-126.2 41.8-91.3-49.4-185.5-92-287.4-116.4-99.6-23.6-199.9-33.5-301-10.6-31.2 6.8-60.8 18.2-87.4 36.5-77.5 54-80.6 148.4-6.9 206.9 32.7 25.9 70.7 42.7 110.3 57.1 95 35 193.8 58.6 290.3 88.3 89.7 27.4 178.7 58.6 261.5 103.5 57.1 31.2 110.3 67.7 155.9 114.1 96.5 98.2 138.3 219.1 142.1 354.6 2.3 60.9-3 121.7-19.7 181.1-2.3 9.1-5.4 19-8.4 28.1-15.2 41.1-33.5 54-76.8 54.8-46.3 0-92.7-0.8-139.1-0.8z"/>
	<path id="Layer" class="s1" d="m438 1433.3c-1.6 23.6-2.3 44.9-7.6 66.9-22.1 83-76.1 131.7-158.9 147.6-43.3 8.4-87.4 6.1-130-7.6-67.7-22-113.3-66.2-131.5-135.4-13.7-51.7-12.9-104.3 3.8-155.2 22-66.2 68.4-108.1 136.1-125.6 47.1-12.2 94.2-10.6 141.3 1.5 82.1 21.3 137.6 87.5 145.2 172.8 0.8 12.1 1.6 24.3 1.6 35z"/>
</svg>