<svg version="1.2" xmlns="http://www.w3.org/2000/svg" viewBox="0 0 1590 1594" width="1590" height="1594">
	<title>Ecolab-svg</title>
	<style>
		.s0 { fill: #0098cc } 
	</style>
	<g id="g10">
		<path id="path44" fill-rule="evenodd" class="s0" d="m749.9 0.4h95.6c286.9 27.4 487.4 161 616.2 361.3 131.2 204.1 179.1 511.2 58.4 770.2-119.3 256.2-331.4 422.2-674.6 462.1h-95.6c-228.7-16-399-120.2-526-249.6-127.7-130.4-223.1-318.7-223.1-547.2 0-460.5 331.7-746.4 749.1-796.8zm53.1 605.6c-31.5-3.1-51.5 5.2-74.4 10.6-159.1-94.1-334.9-199.8-494-276.2 140.3 111.1 290.9 211.9 419.6 334.7-15.3 2.4-12.5 22.8-26.6 26.5-155.8-81.4-317.4-185.4-467.4-255 149.4 114.5 301.6 226.1 446.3 345.3-3.6 30.1 4.8 48.3 10.5 69.1-87.4 165.8-197.9 336.8-270.9 499.3 108.3-141.4 208.2-291.2 329.4-419.6 2.3 15.3 22.8 12.5 26.5 26.5-75.2 160.3-185.5 313.9-249.6 467.4 109.2-152.8 226-298 340-446.2 31.5 3.3 52.9-3.6 74.3-10.6 159 92.4 334.4 196.9 494.1 270.9-142.8-105.1-284.2-211.5-419.7-324 14.1-5.4 14.4-24.6 26.5-31.8 157.5 78.1 316.4 182.9 467.6 249.6-149.5-110.8-296.6-224-441-340-2.3-25.9-10.9-45.7-10.6-74.3 88.9-162.5 195.8-335.4 270.9-494-108.9 140.7-212.9 286.3-329.3 419.6-9.4-10.1-22.5-16.5-31.9-26.5 83-154.3 183.9-319 255-467.5-114.8 149.1-226.1 301.5-345.3 446.2z"/>
	</g>
</svg>