<svg version="1.2" baseProfile="tiny-ps" xmlns="http://www.w3.org/2000/svg" viewBox="0 0 1580 1019" width="1580" height="1019">
	<title>Citi-svg</title>
	<style>
		tspan { white-space:pre }
		.shp0 { fill: #004685 } 
		.shp1 { fill: #ee1c25 } 
	</style>
	<g id="Layer">
		<g id="Layer">
			<g id="Layer">
				<g id="Layer">
					<path id="Layer" class="shp0" d="M482.01 821.44L479.11 824.25C433.53 870.69 380.79 895.23 326.46 895.23C213 895.23 130.68 810.1 130.68 692.69C130.68 575.46 213 490.21 326.46 490.21C380.79 490.21 433.53 514.88 479.11 561.5L482.01 564.26L554.98 476.01L553.03 473.65C492.35 401.95 419.52 367.08 330 367.08C240.25 367.08 158.08 397.33 98.94 451.79C34.54 510.84 0.67 594.1 0.67 692.69C0.67 791.28 34.54 874.73 98.94 933.77C158.08 988.56 240.25 1018.58 330 1018.58C419.52 1018.58 492.35 983.66 553.03 911.91L554.98 909.74L482.01 821.44" />
				</g>
			</g>
			<path id="Layer" class="shp0" d="M628.68 1006.54L757.56 1006.54L757.56 377.27L628.68 377.27L628.68 1006.54Z" />
			<g id="Layer">
				<g id="Layer">
					<path id="Layer" class="shp0" d="M1262.51 869.74C1228.09 890.7 1196.12 901.26 1167.37 901.26C1125.69 901.26 1106.82 879.22 1106.82 830.24L1106.82 496.33L1238.2 496.33L1238.2 377.88L1106.82 377.88L1106.82 182.06L980.52 249.72L980.52 377.88L871.5 377.88L871.5 496.33L980.52 496.33L980.52 851.51C980.52 948.24 1037.85 1014.46 1123.47 1016.18C1181.56 1017.31 1216.57 999.99 1237.79 987.29L1239.15 986.43L1270.13 865.07L1262.51 869.74" />
				</g>
			</g>
			<path id="Layer" class="shp0" d="M1369.2 1006.54L1498.26 1006.54L1498.26 377.27L1369.2 377.27L1369.2 1006.54Z" />
			<g id="Layer">
				<path id="Layer" class="shp1" d="M1573.44 266.96C1455.66 100.16 1260.12 0.67 1061.16 0.67C862.26 0.67 666.67 100.16 549.12 266.96L543.04 275.53L691.34 275.53L692.97 273.76C793.87 169.55 925.66 114.5 1061.16 114.5C1196.67 114.5 1328.37 169.55 1429.5 273.76L1431.13 275.53L1579.33 275.53L1573.44 266.96" />
			</g>
		</g>
	</g>
</svg>