<?xml version="1.0" encoding="UTF-8"?>
<svg width="98.89pt" height="13.518pt" version="1.1" viewBox="0 0 98.89 13.518" xmlns="http://www.w3.org/2000/svg">
 <g transform="translate(-19 -423)">
  <path transform="matrix(1 0 0 -1 19 433.54)" d="m0 0v0.985h1.379v7.849h-1.379v0.985h3.939v-0.985h-1.379v-7.849h1.379v-0.985zm6.091 9.819h4.037c1.618 0 2.616-0.999 2.616-2.532 0-1.463-0.942-1.984-1.589-2.082v-0.085c0.703-0.042 1.927-0.647 1.927-2.279 0-1.617-1.083-2.841-2.532-2.841h-4.459zm1.181-4.248h2.715c0.929 0 1.491 0.492 1.491 1.364v0.478c0 0.872-0.562 1.365-1.491 1.365h-2.715zm0-4.53h2.912c1.013 0 1.632 0.535 1.632 1.519v0.478c0 0.985-0.619 1.52-1.632 1.52h-2.912zm8.005 8.778h1.575l2.813-5.29h0.071l2.827 5.29h1.519v-9.819h-1.153v8.271h-0.07l-0.83-1.646-2.349-4.276-2.35 4.276-0.83 1.646h-0.07v-8.271h-1.153zm13.574-4.98c0 3.32 1.702 5.148 4.347 5.148 1.8 0 2.954-0.731 3.671-2.307l-1.843-0.956c-0.253 0.816-0.773 1.364-1.828 1.364-1.252 0-2.082-0.844-2.082-2.391v-1.575c0-1.548 0.83-2.392 2.082-2.392 1.055 0 1.66 0.661 1.955 1.463l1.744-1.013c-0.731-1.491-1.899-2.349-3.699-2.349-2.645 0-4.347 1.688-4.347 5.008m8.961-1.139c0 2.377 1.294 3.854 3.46 3.854s3.46-1.477 3.46-3.854c0-2.378-1.294-3.869-3.46-3.869s-3.46 1.491-3.46 3.869m4.754-0.76v1.505c0 0.929-0.478 1.463-1.294 1.463s-1.294-0.534-1.294-1.463v-1.505c0-0.929 0.478-1.463 1.294-1.463s1.294 0.534 1.294 1.463m3.643-2.94v7.385h2.082v-1.252h0.085c0.267 0.774 0.886 1.421 2.054 1.421 1.505 0 2.306-1.069 2.306-2.926v-4.628h-2.081v4.459c0 0.943-0.268 1.407-1.027 1.407-0.676 0-1.337-0.352-1.337-1.083v-4.783zm7.779 1.153 1.224 1.238c0.521-0.576 1.154-0.942 1.955-0.942 0.816 0 1.098 0.267 1.098 0.703 0 0.366-0.225 0.549-0.746 0.619l-0.802 0.099c-1.674 0.211-2.489 0.942-2.489 2.278 0 1.421 1.111 2.406 2.869 2.406 1.547 0 2.265-0.422 3.01-1.154l-1.195-1.223c-0.464 0.464-1.083 0.759-1.702 0.759-0.704 0-0.985-0.253-0.985-0.619 0-0.394 0.169-0.605 0.774-0.689l0.83-0.112c1.603-0.212 2.433-0.943 2.433-2.223 0-1.421-1.266-2.462-3.165-2.462-1.421 0-2.349 0.479-3.109 1.322m12.056 0.085h-0.071c-0.253-0.746-0.858-1.407-2.068-1.407-1.505 0-2.307 1.055-2.307 2.912v4.642h2.082v-4.459c0-0.9 0.296-1.407 1.055-1.407 0.647 0 1.309 0.366 1.309 1.069v4.797h2.081v-7.385h-2.081zm6.09-1.238c-1.42 0-2.067 0.717-2.067 2.026v8.383h2.082v-8.791h0.928v-1.618zm4.713 0c-1.435 0-2.194 0.746-2.194 2.152v3.615h-1.041v1.618h0.52c0.563 0 0.732 0.282 0.732 0.788v1.21h1.87v-1.998h1.463v-1.618h-1.463v-4.149h1.351v-1.618zm2.63 9.2v0.309c0 0.591 0.366 1.027 1.21 1.027s1.21-0.436 1.21-1.027v-0.309c0-0.591-0.366-1.027-1.21-1.027s-1.21 0.436-1.21 1.027m0.169-1.815h2.082v-7.385h-2.082zm4.023-7.385v7.385h2.082v-1.252h0.085c0.267 0.774 0.886 1.421 2.053 1.421 1.506 0 2.307-1.069 2.307-2.926v-4.628h-2.082v4.459c0 0.943-0.267 1.407-1.027 1.407-0.675 0-1.336-0.352-1.336-1.083v-4.783zm11.226-2.982c-2.561 0-3.503 0.647-3.503 1.716 0 0.816 0.52 1.294 1.378 1.407v0.154c-0.703 0.127-1.069 0.661-1.069 1.295 0 0.773 0.69 1.167 1.379 1.308v0.056c-0.886 0.408-1.322 1.153-1.322 2.11 0 1.491 1.041 2.49 3.165 2.49 0.464 0 0.886-0.042 1.252-0.141v0.282c0 0.773 0.408 1.111 1.111 1.111h1.168v-1.548h-1.632v-0.084c0.858-0.408 1.266-1.167 1.266-2.11 0-1.477-1.027-2.448-3.165-2.448-0.493 0-0.929 0.057-1.309 0.155-0.196-0.126-0.323-0.337-0.323-0.591 0-0.351 0.253-0.562 0.886-0.562h2.138c1.801 0 2.575-0.788 2.575-2.153 0-1.561-0.985-2.447-3.995-2.447m0.9 2.827h-2.532c-0.183-0.183-0.267-0.436-0.267-0.661 0-0.534 0.422-0.788 1.547-0.788h0.844c1.125 0 1.547 0.254 1.547 0.788 0 0.422-0.309 0.661-1.139 0.661m0.351 5.149v0.168c0 0.648-0.407 1.013-1.223 1.013s-1.224-0.365-1.224-1.013v-0.168c0-0.647 0.408-1.013 1.224-1.013s1.223 0.366 1.223 1.013" />
 </g>
</svg>
