<svg version="1.2" baseProfile="tiny-ps" xmlns="http://www.w3.org/2000/svg" viewBox="0 0 1547 1548" width="1547" height="1548">
	<title>site-logo-svg</title>
	<style>
		tspan { white-space:pre }
		.shp0 { fill: #007a73 } 
	</style>
	<g id="layer1">
		<g id="g14189">
			<path id="path13366" fill-rule="evenodd" class="shp0" d="M1159.76 387.35C1159.76 173.78 986.82 0.68 773.38 0.68C560.01 0.68 387 173.78 387 387.35L1159.76 387.35ZM387 1160.66C387 947.13 560.01 773.99 773.38 773.99C560.01 773.99 387 600.92 387 387.35C173.63 387.35 0.66 560.46 0.66 773.99C0.66 987.59 173.63 1160.66 387 1160.66ZM387 1160.66C387 1374.26 560.01 1547.33 773.38 1547.33C986.82 1547.33 1159.76 1374.26 1159.76 1160.66L387 1160.66ZM773.38 773.99C986.82 773.99 1159.76 947.13 1159.76 1160.66C1373.17 1160.66 1546.18 987.59 1546.18 773.99C1546.18 560.46 1373.17 387.35 1159.76 387.35C1159.76 600.92 986.82 773.99 773.38 773.99Z" />
		</g>
	</g>
</svg>