<svg version="1.2" baseProfile="tiny-ps" xmlns="http://www.w3.org/2000/svg" viewBox="0 0 1658 1658" width="1658" height="1658">
	<title>AT&amp;T_logo_2016-svg</title>
	<style>
		tspan { white-space:pre }
		.shp0 { fill: #00a8e0 } 
	</style>
	<g id="g3">
		<path id="path9" class="shp0" d="M321.56 1483.27C462 1592.03 638.26 1657.37 829.51 1657.37C1038.79 1657.37 1229.58 1579.64 1375.19 1452.04C1376.95 1450.48 1376.08 1449.44 1374.34 1450.48C1309 1494.13 1122.78 1589.43 829.51 1589.43C574.66 1589.43 413.6 1532.54 322.64 1481.75C320.9 1480.89 320.26 1482.2 321.56 1483.27ZM885.73 1525.61C1089.57 1525.61 1313.57 1470.02 1447.53 1359.98C1484.19 1330 1519.11 1290.09 1550.39 1236.47C1568.39 1205.61 1586 1168.95 1600.34 1132.91C1600.98 1131.16 1599.89 1130.3 1598.57 1132.28C1473.99 1315.69 1113.24 1430.09 740.74 1430.09C477.44 1430.09 194.14 1345.86 83.22 1185.02C82.13 1183.53 81.04 1184.17 81.7 1185.88C185.03 1405.59 498.49 1525.61 885.73 1525.61ZM663.02 1161.12C239.07 1161.12 39.18 963.58 2.91 828.78C2.47 826.83 1.18 827.26 1.18 829.01C1.18 874.39 5.72 932.96 13.53 971.83C17.26 990.75 32.65 1020.45 55.22 1044.12C157.88 1151.17 413.82 1301.17 857.06 1301.17C1460.96 1301.17 1599.04 1099.92 1627.23 1033.74C1647.39 986.4 1657.84 900.87 1657.84 829.01C1657.84 811.63 1657.41 797.74 1656.75 784.1C1656.75 781.89 1655.47 781.71 1655.02 783.87C1624.85 945.81 1108.88 1161.12 663.02 1161.12ZM81.04 473.64C56.74 521.87 29.82 603.24 21.81 645.36C18.3 663.4 19.8 672.07 26.12 685.53C76.94 793.39 333.96 965.96 933.48 965.96C1299.24 965.96 1583.37 876.06 1629.4 712.02C1637.88 681.82 1638.33 649.93 1627.44 606.97C1615.27 558.96 1592.49 502.97 1573.2 463.66C1572.57 462.38 1571.44 462.57 1571.67 464.08C1578.84 679.25 979.07 817.92 676.46 817.92C348.67 817.92 75.2 687.26 75.2 522.29C75.2 506.43 78.48 490.58 82.58 474.08C82.99 472.57 81.7 472.32 81.04 473.64ZM1376.53 209.46C1380.01 214.92 1381.75 220.74 1381.75 228.58C1381.75 320.62 1100.18 483.44 651.97 483.44C322.64 483.44 260.99 361.21 260.99 283.48C260.99 255.7 271.64 227.27 295.1 198.4C296.38 196.68 295.29 196.02 293.81 197.29C251.03 233.57 211.72 274.38 177.23 318.44C160.76 339.28 150.53 357.74 150.53 368.8C150.53 529.88 554.26 646.67 931.76 646.67C1333.99 646.67 1513.5 515.31 1513.5 399.86C1513.5 358.6 1497.45 334.52 1456.38 287.82C1429.72 257.44 1404.51 232.71 1377.82 208.36C1376.53 207.3 1375.63 208.16 1376.53 209.46ZM1253.22 117.44C1129.08 43 984.92 0.65 829.51 0.65C673.02 0.65 524.52 44.48 399.94 120.89C362.57 143.9 341.53 162.34 341.53 186.05C341.53 255.92 504.75 331.04 794.32 331.04C1080.89 331.04 1303.16 248.75 1303.16 169.55C1303.16 150.64 1286.64 137.41 1253.22 117.44Z" />
	</g>
</svg>