<svg version="1.2" xmlns="http://www.w3.org/2000/svg" viewBox="0 0 1592 1591" width="1592" height="1591">
	<title>Altria_logo-svg</title>
	<style>
		.s0 { fill: #004c7d } 
		.s1 { fill: #0082c2 } 
		.s2 { fill: #75cccc } 
		.s3 { fill: #73bf42 } 
		.s4 { fill: #00a84c } 
		.s5 { fill: #c2d72e } 
		.s6 { fill: #d7a86e } 
		.s7 { fill: #eee1c5 } 
		.s8 { fill: #e1c297 } 
		.s9 { fill: #00b3c2 } 
		.s10 { fill: #de9c87 } 
		.s11 { fill: #eb1c23 } 
		.s12 { fill: #66c2ee } 
		.s13 { fill: #f57f1e } 
		.s14 { fill: #c2262b } 
		.s15 { fill: #faa619 } 
		.s16 { fill: #8c1719 } 
	</style>
	<g id="Layer">
		<path id="Layer" class="s0" d="m0.8 0.7h318.2v318h-318.2z"/>
		<path id="Layer" class="s1" d="m0.8 318.7h318.2v318h-318.2z"/>
		<path id="Layer" class="s2" d="m0.8 636.7h318.2v317.9h-318.2z"/>
		<path id="Layer" class="s3" d="m0.8 954.6h318.2v318.1h-318.2z"/>
		<path id="Layer" class="s4" d="m0.8 1272.7h318.2v318h-318.2z"/>
		<path id="Layer" class="s3" d="m319 1272.7h318.2v318h-318.2z"/>
		<path id="Layer" class="s5" d="m637.2 1272.7h318.2v318h-318.2z"/>
		<path id="Layer" class="s6" d="m955.4 1272.7h318.3v318h-318.3z"/>
		<path id="Layer" class="s7" d="m1273.7 1272.7h318.2v318h-318.2z"/>
		<path id="Layer" class="s5" d="m319 954.6h318.2v318.1h-318.2z"/>
		<path id="Layer" class="s7" d="m637.2 954.6h318.2v318.1h-318.2z"/>
		<path id="Layer" class="s8" d="m955.4 954.6h318.3v318.1h-318.3z"/>
		<path id="Layer" class="s6" d="m1273.7 954.6h318.2v318.1h-318.2z"/>
		<path id="Layer" class="s9" d="m319 636.7h318.2v317.9h-318.2z"/>
		<path id="Layer" class="s8" d="m637.2 636.7h318.2v317.9h-318.2z"/>
		<path id="Layer" class="s10" d="m955.4 636.7h318.3v317.9h-318.3z"/>
		<path id="Layer" class="s11" d="m1273.7 636.7h318.2v317.9h-318.2z"/>
		<path id="Layer" class="s12" d="m319 318.7h318.2v318h-318.2z"/>
		<path id="Layer" class="s13" d="m637.2 318.7h318.2v318h-318.2z"/>
		<path id="Layer" class="s11" d="m955.4 318.7h318.3v318h-318.3z"/>
		<path id="Layer" class="s14" d="m1273.7 318.7h318.2v318h-318.2z"/>
		<path id="Layer" class="s1" d="m319 0.7h318.2v318h-318.2z"/>
		<path id="Layer" class="s15" d="m637.2 0.7h318.2v318h-318.2z"/>
		<path id="Layer" class="s14" d="m955.4 0.7h318.3v318h-318.3z"/>
		<path id="Layer" class="s16" d="m1273.7 0.7h318.2v318h-318.2z"/>
	</g>
</svg>