<svg version="1.2" xmlns="http://www.w3.org/2000/svg" viewBox="0 0 1088 1512" width="1088" height="1512">
	<title>logo (39)-svg</title>
	<style>
		.s0 { fill: #241f21 } 
	</style>
	<path id="Layer" class="s0" d="m334.1 1242.7c0 150 26.1 210.6 120.1 269.2h-454.2c85-45.5 102.3-97.7 102.3-293.1v-922.5c0-195.5-17.5-247.5-102.3-293.1h220.5c69.9 0 69.9 0 257.8-2.2h71.9c26-1.2 51.9-0.8 77.9 1 25.9 1.8 51.7 5 77.2 9.8 25.5 4.7 50.8 10.9 75.6 18.6 24.8 7.6 49.2 16.6 73 27 33.5 14.9 64.8 34.4 92.9 58 28.1 23.5 52.8 50.8 73.3 81.2 20.6 30.4 36.8 63.4 48.2 98.3 11.4 34.8 17.9 71.1 19.3 107.7 0 236.6-229.4 429.8-508.9 429.8-14.2 0.6-28.4 0.5-42.5-0.5-14.2-1-28.3-2.7-42.2-5.3-14-2.5-27.8-5.9-41.4-10-13.6-4.1-26.9-9-39.9-14.6 26.8-1 53.6-4.2 79.9-9.4 26.4-5.3 52.3-12.6 77.5-22 25.2-9.4 49.6-20.8 73-34 23.3-13.3 45.6-28.4 66.6-45.2 18.7-14.7 35.7-31.4 50.6-49.9 15-18.5 27.8-38.6 38.1-60 10.4-21.3 18.3-43.8 23.6-67 5.3-23.2 7.9-46.8 7.8-70.6 0-175.9-126.6-284.4-334.1-284.4q-20.4-0.4-40.8 0.7-20.4 1-40.7 3.5-20.2 2.4-40.3 6.3-20 3.8-39.8 9z"/>
</svg>